<?xml version="1.0" encoding="UTF-8"?>
<svg id="Calque_1" xmlns="http://www.w3.org/2000/svg" version="1.1" xmlns:xlink="http://www.w3.org/1999/xlink" viewBox="0 0 890 890">
  <defs>
    <style>
      .st0 {
        fill: url(#gradMP3);
      }

      .st0, .st1, .st2, .st3, .st4, .st5, .st6, .st7, .st8, .st9 {
        fill-rule: evenodd;
      }

      .st1 {
        fill: #2e6fd0;
      }

      .st2 {
        fill: #1c1c82;
      }

      .st3 {
        fill: url(#gradMP2);
      }

      .st4 {
        fill: #eea700;
      }

      .st5 {
        fill: url(#gradMP);
      }

      .st6 {
        fill: #1fb6a8;
      }

      .st7 {
        fill: #9d24b2;
      }

      .st8 {
        fill: url(#gradMP5);
      }

      .st9 {
        fill: url(#gradMP4);
      }

      .st10 {
        opacity: .4;
      }
    </style>
    <linearGradient id="gradMP" x1="394.5" y1="-304.5" x2="395.5" y2="-303.5" gradientTransform="translate(-181964.3118 -355019.7878) rotate(90) scale(900 600)" gradientUnits="userSpaceOnUse">
      <stop offset="0" stop-color="#1fb6a8"/>
      <stop offset=".2" stop-color="#2e6fd0"/>
      <stop offset=".4" stop-color="#eea700"/>
      <stop offset=".6" stop-color="#8a2be2"/>
      <stop offset=".8" stop-color="#6ac6de"/>
      <stop offset="1" stop-color="#4cc96b"/>
    </linearGradient>
    <linearGradient id="gradMP2" x1="395.3" y1="-304.2" x2="396.3" y2="-303.2" gradientTransform="translate(356703.6484 -181787.7793) rotate(-180) scale(900 600)" gradientUnits="userSpaceOnUse">
      <stop offset="0" stop-color="#1fb6a8"/>
      <stop offset=".2" stop-color="#2e6fd0"/>
      <stop offset=".4" stop-color="#eea700"/>
      <stop offset=".6" stop-color="#8a2be2"/>
      <stop offset=".8" stop-color="#6ac6de"/>
      <stop offset="1" stop-color="#4cc96b"/>
    </linearGradient>
    <linearGradient id="gradMP3" x1="394.3" y1="-305.9" x2="395" y2="-304.9" gradientTransform="translate(-212675 165341.1693) scale(540)" gradientUnits="userSpaceOnUse">
      <stop offset="0" stop-color="#1fb6a8"/>
      <stop offset=".3" stop-color="#2e6fd0"/>
      <stop offset=".7" stop-color="#8a2be2"/>
      <stop offset="1" stop-color="#4cc96b"/>
    </linearGradient>
    <linearGradient id="gradMP4" x1="10" y1="445" x2="880" y2="445" gradientTransform="translate(0 889.9) scale(1 -1)" gradientUnits="userSpaceOnUse">
      <stop offset="0" stop-color="#1fb6a8"/>
      <stop offset=".2" stop-color="#2e6fd0"/>
      <stop offset=".4" stop-color="#8a2be2"/>
      <stop offset=".6" stop-color="#eea700"/>
      <stop offset=".8" stop-color="#6ac6de"/>
      <stop offset="1" stop-color="#4cc96b"/>
    </linearGradient>
    <linearGradient id="gradMP5" x1="140" y1="445" x2="750" y2="445" gradientTransform="translate(0 889.9) scale(1 -1)" gradientUnits="userSpaceOnUse">
      <stop offset="0" stop-color="#1fb6a8"/>
      <stop offset=".2" stop-color="#2e6fd0"/>
      <stop offset=".4" stop-color="#8a2be2"/>
      <stop offset=".6" stop-color="#eea700"/>
      <stop offset=".8" stop-color="#6ac6de"/>
      <stop offset="1" stop-color="#4cc96b"/>
    </linearGradient>
  </defs>
  <g id="ORBITES" class="st10">
    <path class="st5" d="M588,176.1l-15.8-8.1-16-7.7-18-8.1-16.3-6.8-16.5-6.3-16.5-5.9-16.6-5.4-16.7-4.9-16.7-4.4-16.7-3.9-16.6-3.4-16.6-2.9-16.5-2.4-16.4-1.9-16.2-1.3-16.1-.8-15.9-.3-15.7.2-15.5.8-15.2,1.3-14.9,1.8-14.6,2.3-14.3,2.9-14,3.4-13.6,3.9-13.2,4.4-12.8,4.9-12.4,5.4-11.9,5.9-11.5,6.4-11,6.8-10.5,7.3-10,7.7-9.4,8.2-8.9,8.6-8.3,9-7.7,9.4-7.1,9.8-6.5,10.2-5.9,10.5-5.3,10.8-4.6,11.1-4,11.4-3.3,11.7-2.7,12-2,12.2-1.4,12.4-.7,12.6v12.8s.6,13,.6,13l1.3,13.1,1.9,13.2,2.6,13.3,3.2,13.4,3.9,13.4,4.5,13.5,5.1,13.5,5.8,13.5,6.4,13.4,7,13.4,7.6,13.3,8.1,13.2,8.7,13.1,9.3,13,7.6,10,6.8,8.5,8.1,9.8,8.4,9.7,7.5,8.2,9,9.5,9.3,9.3,9.5,9.2,8.4,7.8,10,8.9,10.3,8.7,10.5,8.5,9.2,7.2,10.9,8.2,11.1,8,11.3,7.8,9.9,6.5,11.7,7.4,11.8,7.1,12,6.9,12.1,6.7,12.3,6.4,12.4,6.1,10.7,5.1,12.6,5.7,12.7,5.4,12.8,5.1,11,4.2,12.9,4.6,12.9,4.3,12.9,4,11.1,3.2,13,3.5,13,3.2,13,2.9,11.1,2.2,12.9,2.3,12.8,2,12.8,1.7,10.9,1.2,12.7,1.1,12.5.8,12.5.5h10.6c0,.1,12.2,0,12.2,0l12.1-.5,11.9-.8,10.1-.9,11.6-1.4,11.5-1.7,11.3-2,9.5-2,10.9-2.6,10.6-2.9,10.5-3.2,8.8-3,10-3.8,9.7-4.1,9.5-4.4,7.9-4,9-4.9,8.6-5.2,8.4-5.5,6.9-4.9,7.8-6,7.4-6.2,7.1-6.5,5.9-5.8,6.5-7,6.1-7.2,5-6.4,5.5-7.6,5.1-7.9,4.1-6.9,4.4-8.2,3.5-7.3,3.7-8.6,3.3-8.8,2.5-7.7,2.6-9.1,2.2-9.2,1.6-8.1,1.5-9.5,1.1-9.7.6-8.4.3-9.9v-10c0,0-.6-10.1-.6-10.1l-.7-8.7-1.2-10.2-1.6-10.3-2-10.4-2-8.9-2.7-10.4-3.1-10.4-3.5-10.5-3.3-9-4.2-10.5-4.6-10.5-5-10.5-4.5-9-5.6-10.4-6-10.3-6.3-10.3-5.7-8.8-7-10.2-7.3-10.1-7.6-10-6.8-8.5-8.2-9.8-8.5-9.7-8.8-9.6-7.8-8.1-9.3-9.3-9.6-9.1-9.9-9-8.6-7.6-10.3-8.7-10.5-8.5-10.8-8.3-9.4-7-11.2-8-11.3-7.7-11.5-7.5-10-6.3-11.9-7.1-12-6.9-12.1-6.6ZM583.7,184.1l13.7,7.5,15.2,8.8,14.9,9.2,14.6,9.5,12.8,8.8,14,10.2,13.7,10.5,13.3,10.8,11.5,9.9,12.6,11.4,12.1,11.6,11.7,11.8,11.2,12.1,10.7,12.2,10.2,12.4,9.7,12.6,8.2,11.3,8.7,12.8,8.2,12.9,7.6,13,7,13.1,6.4,13.1,5.8,13.1,5.2,13.1,4.1,11.7,4.1,13.1,3.4,13,2.8,12.9,2.2,12.8,1.5,12.7.9,12.6.2,12.4-.3,10.9-1,12.1-1.6,11.8-2.2,11.6-2.9,11.4-3.5,11.1-4.1,10.8-4.7,10.5-5.3,10.2-5.9,9.9-6.5,9.6-7.1,9.2-7.6,8.8-8.2,8.5-8.8,8.1-9.3,7.7-9.8,7.3-10.3,6.8-10.8,6.4-11.3,6-11.7,5.5-12.2,5-12.6,4.5-11.5,3.6-13.4,3.6-13.7,3.1-14.1,2.6-14.4,2.1-14.7,1.6-15,1.1-15.2.6h-13.7c0,0-12.2-.2-12.2-.2l-12.3-.6-12.4-.9-12.5-1.2-12.6-1.5-12.6-1.8-12.7-2.1-10.9-2.1-12.8-2.7-12.8-3-12.8-3.3-10.9-3.1-12.8-3.8-12.7-4.1-12.7-4.4-10.9-4-12.6-4.9-12.5-5.2-23.1-10.4-12.3-6-12.1-6.2-22.2-12.2-21.7-13-11.5-7.3-11.3-7.5-9.5-6.6-10.9-7.9-10.7-8.1-10.5-8.3-8.8-7.3-10.1-8.6-9.8-8.8-9.6-9-8-7.8-9.1-9.2-8.8-9.4-8.5-9.5-7-8.2-7.9-9.7-7.6-9.8-7.3-9.9-7-10-6.6-10-6.3-10.1-6-10.1-4.8-8.7-5.3-10.2-5-10.2-4.6-10.2-3.6-8.8-3.9-10.2-3.5-10.2-3.1-10.2-2.4-8.7-2.4-10.1-2.1-10-1.7-10-1.3-9.9-.9-9.8-.5-9.7v-9.6c-.1,0,0-8.2,0-8.2l.6-9.4,1-9.3,1.3-9.2,1.7-9,2.1-8.9,2.5-8.7,2.9-8.6,3.2-8.4,3.6-8.2,4-8,4.3-7.8,4.7-7.6,5-7.4,5.4-7.2,4.9-6,6-6.8,6.4-6.6,6.7-6.4,7-6.1,7.4-5.9,7.7-5.6,8-5.4,7.1-4.4,8.5-4.9,8.8-4.6,9.1-4.3,8-3.5,9.6-3.8,9.8-3.5,10.1-3.2,8.8-2.5,10.5-2.7,10.7-2.4,11-2,11.1-1.7,11.3-1.4,11.5-1.1,11.7-.8,10.1-.5,12-.2h12.1c0,0,12.2.5,12.2.5l10.5.6,12.4,1,12.5,1.3,12.6,1.6,10.8,1.6,12.7,2.2,12.7,2.5,12.8,2.8,12.8,3.1,12.8,3.4,12.8,3.7,12.8,4,10.9,3.6,12.7,4.5,12.6,4.8,23.3,9.6,12.4,5.6,12.3,5.8,22.6,11.5Z"/>
    <path class="st3" d="M664.2,46.9l-11.8-6.3-7.3-3.4-6.2-2.6-7.5-2.9-6.4-2.2-7.7-2.3-6.6-1.7-8-1.8-8-1.5-6.8-1.1-8.2-1-7-.6-8.4-.5-8.5-.2h-7.2c0,.1-8.6.5-8.6.5l-16,1.5-16.1,2.5-16.3,3.4-8.9,2.3-9,2.6-16.5,5.4-16.5,6.4-9,3.9-9,4.1-16.4,8.3-16.3,9.2-16.2,10-16,10.9-17.2,12.8-15.5,12.5-15.3,13.3-16.3,15.3-14.6,14.8-14.2,15.4-15,17.5-13.3,16.7-12.8,17.2-12.3,17.7-12.8,19.8-11.2,18.6-11.5,20.7-9.9,19.4-10.1,21.4-8.5,19.9-8.5,21.9-7.1,20.2-6.4,20.3-6.1,22.2-4.8,20.4-4.1,20.3-3.6,22-2.5,20.1-1.7,19.9-1,21.4v19.3c0,0,.7,19,.7,19l1.5,18.6,2.3,18.2,1.6,9.7,1.8,9.6,3.9,17.2,4.7,16.7,2.9,8.9,3.1,8.7,6.3,15.4,7,14.8,7.7,14.1,4.5,7.4,3.9,6,4.9,7,5.1,6.7,4.4,5.5,5.4,6.3,4.7,5.1,5.8,5.8,5,4.7,6.1,5.4,5.2,4.3,6.4,4.9,5.5,3.9,6.7,4.4,5.8,3.5,7,3.9,6,3.1,7.2,3.4,6.2,2.6,7.5,2.9,6.4,2.2,7.7,2.3,6.6,1.8,8,1.8,8,1.5,6.8,1,8.2,1,7,.6,8.4.4h8.5c0,.1,7.2,0,7.2,0l8.6-.4,16-1.5,16.1-2.5,16.3-3.4,8.9-2.3,9-2.6,16.4-5.4,16.5-6.4,9-3.9,9-4.1,16.4-8.3,16.3-9.2,16.2-10,16-10.8,17.2-12.8,15.5-12.5,15.3-13.3,16.3-15.3,14.6-14.8,14.2-15.4,15-17.5,13.3-16.7,12.8-17.2,12.3-17.7,12.8-19.8,11.2-18.6,11.5-20.7,9.9-19.4,10.1-21.4,8.5-19.9,8.5-21.9,7.1-20.2,6.4-20.3,6.1-22.2,4.8-20.4,4.1-20.3,3.6-22,2.5-20.1,1.7-19.9,1-21.4v-19.3c0,0-.7-19-.7-19l-1.5-18.6-2.3-18.2-1.6-9.8-1.8-9.6-3.9-17.2-4.7-16.7-2.9-8.9-3.1-8.6-6.3-15.4-7-14.8-7.7-14.1-4.5-7.4-3.9-6-4.9-7-5.1-6.7-4.4-5.5-5.4-6.3-4.7-5.1-5.8-5.8-6-5.6-5.1-4.5-6.3-5.1-5.4-4.1-6.6-4.6-5.6-3.7-6.9-4.1ZM654.2,51.6l6.7,3.7,6.6,4,6.4,4.3,5.2,3.8,6.1,4.7,6,5,5.8,5.2,4.7,4.6,5.5,5.7,5.3,5.9,5.1,6.2,4.1,5.3,8.6,12.3,8,13,4.1,7.4,3.9,7.6,6.6,14.5,5.9,15.1,5.2,15.8,2.5,8.8,2.3,9,3.6,16.9,2.9,17.4,2.1,17.9,1.4,20,.5,18.7-.3,19-1,19.3-2,21.4-2.6,19.8-3.4,19.9-4.2,20-5.4,21.9-5.7,20.1-6.4,20-7.1,19.9-7.8,19.8-8.5,19.6-9.1,19.4-9.8,19.1-10.4,18.8-10.9,18.4-11.5,18-12,17.6-12.5,17.1-13,16.5-13.5,16-15.1,16.7-14.3,14.7-14.6,14-14.9,13.2-16.6,13.6-15.5,11.7-15.6,10.9-15.8,10-17.4,10-16,8.2-16,7.4-16.1,6.5-8.7,3.1-8.7,2.9-16,4.5-15.8,3.6-15.7,2.6-8.5,1-8.4.8-15.3.6-15-.3-6.7-.5-8-.8-7.9-1.1-7.8-1.4-6.4-1.4-7.6-1.9-7.5-2.2-7.4-2.4-6-2.2-7.1-2.9-7-3.2-6.9-3.5-6.7-3.7-6.6-4-6.4-4.3-5.2-3.8-6.1-4.7-6-5-5.8-5.2-4.7-4.5-5.5-5.7-5.3-5.9-5.1-6.2-4.1-5.3-8.6-12.3-8-13-4.1-7.4-3.9-7.6-6.6-14.5-5.9-15.1-5.2-15.8-2.5-8.8-2.3-9-3.6-16.9-2.9-17.4-2.1-17.9-1.4-20-.5-18.7.3-19,1-19.3,2-21.4,2.7-19.8,3.4-19.9,4.2-20,5.4-21.9,5.7-20.1,6.4-20,7.1-19.9,7.8-19.8,8.5-19.6,9.1-19.4,9.8-19.1,10.4-18.8,10.9-18.4,11.5-18,12-17.5,12.5-17.1,13-16.5,13.5-16,15.1-16.7,14.3-14.6,14.6-14,14.9-13.3,16.6-13.6,15.5-11.7,15.6-10.9,15.8-10.1,17.4-10,16-8.2,16-7.4,16.1-6.4,8.7-3.1,8.7-2.9,16-4.5,15.8-3.6,15.7-2.6,8.5-1,8.4-.8,15.3-.6,15,.3,6.7.5,8,.8,7.9,1.1,7.8,1.4,6.4,1.3,7.6,1.9,7.5,2.2,7.4,2.4,6,2.2,7.1,2.9,7,3.2,6.9,3.5Z"/>
  </g>
  <path class="st4" d="M821.5,715v-2.7c-.1,0-.5-2.7-.5-2.7l-.7-2.8-.9-2.5-1.1-2.4-1.4-2.3-1.7-2.4-1.8-2-2-1.8-2.4-1.7-2.3-1.4-2.4-1.2-2.5-.9-2.8-.7-2.7-.4h-2.7c0-.1-2.7,0-2.7,0l-2.7.4-2.9.7-2.5.9-2.4,1.2-2.3,1.4-2.2,1.6-2.2,2-1.8,2-1.7,2.4-1.4,2.3-1.2,2.4-.9,2.5-.7,2.8-.4,2.7v2.7c-.1,0,0,2.7,0,2.7l.4,2.7.7,2.8.9,2.5,1.2,2.4,1.4,2.3,1.7,2.4,1.8,2,2,1.8,2.4,1.7,2.3,1.4,2.4,1.2,2.5.9,2.9.7,2.7.4h2.7c0,.1,2.7,0,2.7,0l2.7-.4,2.8-.7,2.5-.9,2.4-1.2,2.3-1.4,2.4-1.7,2-1.8,1.8-2,1.7-2.4,1.4-2.3,1.1-2.4.9-2.5.7-2.8.4-2.7v-2.7Z"/>
  <path class="st1" d="M175,747.2v-2.9c-.1,0-.6-2.7-.6-2.7l-.7-2.6-.9-2.5-1.1-2.4-1.5-2.5-1.6-2.1-1.8-2-2-1.8-2.4-1.7-2.3-1.4-2.4-1.1-2.5-.9-2.9-.7-2.7-.4h-2.7c0-.1-2.7,0-2.7,0l-2.7.4-2.9.7-2.5.9-2.4,1.1-2.3,1.4-2.2,1.6-2.2,2-2,2.2-1.6,2.2-1.4,2.3-1.1,2.4-.9,2.5-.7,2.6-.4,2.7v2.9c-.1,0,0,2.9,0,2.9l.4,2.7.7,2.6.9,2.5,1.1,2.4,1.5,2.5,1.6,2.2,1.8,2,2,1.8,2.4,1.7,2.3,1.4,2.4,1.2,2.5.9,2.9.7,2.7.4h2.7c0,.1,2.7,0,2.7,0l2.7-.4,2.9-.7,2.5-.9,2.4-1.2,2.3-1.4,2.4-1.7,2-1.8,1.8-2,1.6-2.2,1.5-2.5,1.1-2.4.9-2.5.7-2.6.4-2.7v-2.9Z"/>
  <path class="st6" d="M151.9,153.1v-2.9c-.1,0-.6-2.6-.6-2.6l-.7-2.6-.9-2.5-1.3-2.6-1.4-2.3-1.6-2.1-1.8-2-2-1.8-2.1-1.6-2.3-1.4-2.6-1.3-2.5-.9-2.6-.7-2.7-.4h-2.9c0-.1-2.9,0-2.9,0l-2.6.4-2.6.7-2.5.9-2.4,1.2-2.5,1.5-2.1,1.6-2,1.8-1.8,2-1.6,2.1-1.4,2.3-1.3,2.6-.9,2.5-.7,2.6-.4,2.6v2.9c-.1,0,0,2.9,0,2.9l.4,2.7.7,2.6.9,2.5,1.3,2.6,1.4,2.3,1.6,2.2,1.8,2,2,1.8,2.1,1.6,2.3,1.4,2.6,1.3,2.5.9,2.6.7,2.6.4,2.9.2,2.9-.2,2.7-.4,2.6-.7,2.5-.9,2.4-1.1,2.5-1.5,2.1-1.6,2-1.8,1.8-2,1.6-2.2,1.5-2.5,1.1-2.4.9-2.5.7-2.6.4-2.7v-2.9Z"/>
  <path class="st7" d="M748.5,100.6v-2.7c-.1,0-.5-2.7-.5-2.7l-.7-2.9-.9-2.5-1.2-2.4-1.4-2.3-1.7-2.4-1.8-2-2-1.8-2.2-1.6-2.5-1.5-2.4-1.1-2.5-.9-2.6-.7-2.9-.4h-2.7c0-.1-2.7,0-2.7,0l-2.9.4-2.6.7-2.5.9-2.4,1.1-2.5,1.5-2.2,1.6-2,1.8-1.8,2-1.6,2.1-1.4,2.3-1.3,2.6-.9,2.5-.7,2.9-.4,2.7v2.7c-.1,0,0,2.7,0,2.7l.4,2.7.7,2.9.9,2.5,1.2,2.4,1.4,2.3,1.7,2.4,1.8,2,2,1.8,2.4,1.7,2.3,1.4,2.4,1.1,2.5.9,2.6.7,2.6.4h2.9c0,.1,2.9,0,2.9,0l2.6-.4,2.6-.7,2.5-.9,2.4-1.1,2.5-1.5,2.2-1.6,2-1.8,1.8-2,1.7-2.4,1.4-2.3,1.2-2.4.9-2.5.7-2.9.4-2.7v-2.7Z"/>
  <path id="ruban-croix" class="st2" d="M270,174.9v70.2l-.2,3-.5,2.6-.7,2.5-.9,2.4-1.3,2.4-1.6,2.3-1.7,1.9-1.9,1.8-2.2,1.7-3,1.8-3,1.2-3.4.9-3.4.4h-73.3c0,0-6.7.2-6.7.2l-7.3.5-9.1,1.1-9.6,1.7-9,2-9.2,2.6-11.9,4.2-5.7,2.4-6.2,2.9-11,5.9-5.8,3.5-5.3,3.5-10.3,7.6-9.9,8.5-9.2,9.2-8.5,9.8-6.4,8.5-6.1,9.2-5.3,9.3-5,10-4.2,10-3.5,10-2.9,10.3-2.3,10.5-1.6,10.8-1,11-.3,11,.4,10.9,1.1,10.9,1.7,10.7,2.4,10.5,3,10.3,2.7,7.7,3.3,8.2,3.7,8,4.1,7.7,4.4,7.3,4.8,7.2,5.2,7,5.5,6.7,5.8,6.4,6.1,6.1,6.4,5.8,6.7,5.5,7,5.2,7.2,4.8,7.5,4.5,7.1,3.8,6.3,3,6.3,2.7,6,2.3,6.5,2.2,6.2,1.9,6.7,1.7,6.4,1.4,6.9,1.2,11.8,1.4,12,.7h76.1c0,.1,4.5.9,4.5.9l4.3,1.6,4,2.4,3.4,3.1,2.5,3.1,1.9,3.4,1.4,3.7.8,4,.2,2.8v71.3l.4,11.1,1.1,10.7,1.8,10.7,2.4,10.5,3.1,10.5,2,5.9,2.5,6.4,5.2,11.4,3.1,6,3.2,5.5,3.6,5.7,3.5,5.2,7.7,10.2,8.6,9.7,9.3,9.1,9.9,8.4,8.6,6.3,8.8,5.6,9.7,5.4,9.5,4.6,10,4.1,10.1,3.4,10.4,2.8,10.4,2.1,10.8,1.5,10.3.8,11,.2,10.8-.5,10.2-1,10.7-1.8,10.3-2.3,10.3-3,7.7-2.7,8.2-3.3,8-3.7,7.7-4.1,7.3-4.4,7.2-4.8,7-5.2,6.7-5.5,6.4-5.8,6.1-6.1,5.8-6.4,5.5-6.7,5.2-7,4.8-7.2,4.5-7.5,3.8-7.1,3-6.3,2.7-6.3,2.3-6,2.2-6.5,1.9-6.2,1.7-6.7,1.4-6.4,1.2-6.9,1.4-11.8.7-12v-76.1c.1,0,.9-4.5.9-4.5l1.6-4.3,2.4-4,3.1-3.5,3.1-2.5,3.4-1.9,3.7-1.4,4-.8,2.8-.2h71.3l11.1-.4,10.7-1.1,10.7-1.8,10.5-2.4,10.5-3.1,5.9-2,6.4-2.5,11.4-5.2,6-3.1,5.5-3.2,5.7-3.6,5.2-3.5,10.2-7.7,9.7-8.6,9.1-9.3,8.4-9.9,6.3-8.6,5.6-8.8,5.4-9.7,4.6-9.5,4.1-10,3.4-10.1,2.8-10.4,2.1-10.4,1.5-10.8.8-10.3.2-11-.5-10.8-1-10.2-1.8-10.7-2.3-10.3-3-10.3-2.7-7.7-3.3-8.2-3.7-7.9-4.1-7.7-4.4-7.3-4.8-7.2-5.2-7-5.5-6.7-5.8-6.4-6.1-6.1-6.4-5.8-6.7-5.5-7-5.2-7.2-4.8-7.5-4.5-7.1-3.8-6.3-3-6.3-2.7-6-2.3-6.5-2.2-6.8-2-6.3-1.6-6.8-1.5-6.5-1.1-11.8-1.5-11.7-.6h-76.1c0-.1-4.2-.9-4.2-.9l-4.1-1.5-3.8-2.2-3.4-2.8-2.8-3.4-2.2-3.8-1.5-4.1-.7-4.2v-75.9c-.1,0-.7-11.3-.7-11.3l-1.4-11.5-2.4-12.6-1.7-6.7-1.8-6.2-2.2-6.5-2.3-6-2.6-6.3-2.7-5.8-3.9-7.6-4.1-7-4.6-7.1-5.1-7-5-6.3-5.7-6.5-6-6.2-6.3-5.9-6.6-5.6-6.7-5.2-7.1-5-6.8-4.3-7.6-4.3-7.6-3.8-8.1-3.5-7.7-2.9-10.2-3.2-10.2-2.6-10-1.9-10.6-1.4-10.3-.7h-10.8c0-.1-10.4.4-10.4.4l-10.7,1.2-10,1.7-10.3,2.4-9.6,2.8-10,3.6-9.5,4.1-9.4,4.7-9,5.3-8.7,5.8-8.3,6.3-7.9,6.7-7.6,7.3-7,7.6-6.6,8-6.1,8.4-5.6,8.8-5.1,9.2-4.6,9.5-3.9,9.6-3.4,10.1-2.7,9.7-2.2,10.3-1.5,10.1-1,10.7-.3,10.3ZM360,174.9l.2-5.5.6-5.8.8-5.2,1.3-5.5,1.6-5.4,2-5.2,2.3-5,2.6-4.9,2.9-4.7,3.2-4.5,3.5-4.2,4-4.3,4.3-4,4.3-3.5,4.5-3.2,4.7-2.9,4.9-2.6,5-2.3,5.2-1.9,5.4-1.6,5.5-1.3,5.6-.9,5.8-.5h5.5c0-.1,5.5,0,5.5,0l5.8.6,5.2.9,5.5,1.3,5.3,1.6,5.2,2,5,2.3,4.8,2.6,6.4,4.1,6,4.7,5.8,5.5,5.1,5.7,4.5,6.1,4,6.5,3.4,6.8,2.8,7.2,1.6,5.4,1.2,5.5.9,5.7.5,5.8.2,77.7.7,10.1,1.5,9.8,1.8,7.5,2.5,7.9,2.9,7.4,3.5,7.4,3.9,6.9,4.4,6.7,4.8,6.2,5.3,6,6,5.9,6.4,5.5,6.8,5,7.2,4.5,7.6,4,7.9,3.4,8.2,2.8,7.8,2.1,5.4,1.1,5.5.8,5.5.6,5.6.3h74.3c0,0,6.3.3,6.3.3l7,.8,7.2,1.5,7,2.1,6.7,2.7,4.6,2.2,4.8,2.7,4.2,2.8,4.4,3.3,3.9,3.3,4,3.8,3.7,4,3.2,3.9,3.2,4.5,2.7,4.3,2.6,4.8,2.1,4.6,1.9,4.8,1.6,4.9,1.3,5,1,5.1.8,6.6.3,6.3-.2,6.4-.7,6.6-1.1,6-1.6,6.3-2.1,6.1-2.5,5.8-3,5.6-3.4,5.4-3.8,5.1-4.4,5.1-4.8,4.8-4.8,4.1-5.5,4-5.4,3.3-8,4-8,3-8.4,2.2-8.7,1.3-8.1.4h-74.7c0,0-5.6.4-5.6.4l-6.2.7-5.5.9-5.8,1.2-8,2.2-8.1,3-7.2,3.2-7.5,4-7.2,4.6-6.8,5-6.4,5.5-6,6-5.2,6.1-4.7,6.2-4.4,6.8-3.6,6.5-3.4,7.2-2.8,7-2.3,7.2-1.8,7.5-1,5.4-.7,5.1-.7,10.1v73.7s-.3,5.9-.3,5.9l-.8,7.1-1.5,7.2-1.9,6.6-2.6,6.8-2.2,4.6-2.7,4.8-2.7,4.3-3.2,4.4-3.5,4.2-3.8,4-4,3.7-3.9,3.2-4.5,3.2-4.3,2.7-4.8,2.6-4.6,2.2-5.2,2-4.9,1.6-5,1.3-5.1,1-6.6.8-6.3.3-6.4-.2-6.6-.7-6-1.1-6.3-1.6-6.1-2.1-5.8-2.5-5.6-3-5.4-3.4-5.1-3.8-5.1-4.4-4.8-4.8-4.1-4.8-4-5.5-3.3-5.4-4-8-3-8-2.2-8.4-1.3-8.7-.4-8.1v-74.7c0,0-.4-5.6-.4-5.6l-.7-6.2-.9-5.5-1.2-5.8-2.2-8-3-8.1-3.2-7.2-4-7.5-4.6-7.2-5-6.8-5.5-6.4-6-6-6.1-5.2-6.2-4.7-6.8-4.4-6.5-3.6-7.2-3.4-7-2.8-7.2-2.3-7.4-1.8-5.4-1-5.1-.7-10-.7h-73.7s-5.9-.3-5.9-.3l-7.1-.8-7.2-1.5-6.6-1.9-6.8-2.6-4.6-2.2-4.8-2.7-4.3-2.7-4.4-3.2-4.2-3.5-4-3.8-3.7-4-3.2-3.9-3.2-4.5-2.7-4.3-2.6-4.8-2.2-4.6-2-5.2-1.6-4.9-1.3-5-1-5.1-.8-6.6-.3-6.3.2-6.4.7-6.6,1.1-6,1.6-6.3,2.1-6.1,2.5-5.8,3-5.6,3.4-5.4,3.8-5.1,4.4-5.1,4.8-4.8,4.8-4.1,5.5-4,5.4-3.3,8-4,8-3,8.4-2.2,8.7-1.3,8.1-.4h74.7c0,0,5.6-.4,5.6-.4l5.5-.6,5.5-.9,6-1.3,7.8-2.1,7.8-2.8,7.3-3.2,7.6-4,6.9-4.3,6.9-5,6.5-5.4,6-5.9,5.2-5.8,4.9-6.4,4.4-6.5,4-7,3.4-7.1,2.8-7,2.5-7.9,1.9-7.4,1.7-10.2.5-5.6.3-5.2v-73.1Z"/>
  <path id="ruban-etoile" class="st0" d="M171.2,479.8l20.2.5,14.3.7,14.4,1.2,13.1,1.6,12.1,2,12.3,2.5,11.7,2.9,10.6,3.2,10.8,3.8,9.7,3.9,10.1,4.8,9.3,5.1,9,5.7,8.2,5.9,8.1,6.6,7.6,7.1,7.1,7.6,6.8,8.4,6.1,8.5,5.6,9,5,9.3,4.9,10.5,4.2,10.5,3.8,11.2,2.9,10,2.7,10.9,2.4,11.9,1.8,11.4,1.7,13.9,1.2,14.9.7,13.9.2,16.4.2,3.4.9,5,1.6,4.9,2.3,4.5,1.9,2.8,2.2,2.6,3.7,3.5,4.2,2.9,4.6,2.3,4.9,1.6,5,.9h5.1c0,.1,3.4-.2,3.4-.2l5-1.1,4.8-1.8,4.5-2.5,4-3.1,3.5-3.7,3-4.2,2.3-4.5,1.7-4.9.9-5,.2-3.4.2-16.4.7-13.9,1.2-14.9,1.7-13.9,1.8-11,2.4-11.9,2.7-10.9,2.9-10,3.8-11.2,4.2-10.5,4.7-10.1,5-9.4,5.8-9.3,6-8.5,6.6-8.1,7.1-7.6,7.5-7.1,8.3-6.9,8.5-6.1,9.3-5.8,9.3-5.1,10.5-4.9,10.4-4.2,11.2-3.8,10.4-3,10.9-2.7,11.5-2.3,11.3-1.9,13.9-1.7,15.3-1.3,13.9-.7,16.4-.2,3.4-.2,5-.9,4.9-1.7,4.5-2.3,4.2-3,3.7-3.5,2.2-2.7,1.9-2.8,2.3-4.6,1.6-4.9.9-5v-5.1c.1,0-.5-5.1-.5-5.1l-.8-3.3-1.8-4.8-2.5-4.5-3.1-4.1-3.7-3.5-4.2-3-4.5-2.3-4.9-1.6-5-.9-3.4-.2-16.4-.2-13.9-.7-14.9-1.2-13.9-1.7-11.4-1.8-11.9-2.4-10.9-2.7-10-2.9-11.2-3.8-10.5-4.2-10.1-4.7-9.3-5-9-5.6-8.5-6-8.1-6.6-7.6-7.1-7.1-7.5-6.9-8.3-6.1-8.5-5.8-9.3-5.1-9.3-4.9-10.5-4.2-10.4-3.8-11.2-3-10.4-2.7-10.9-2.3-11.6-1.9-11.4-1.7-13.9-1.3-15.3-.7-13.9-.2-16.4-.2-3.4-.9-5-1.7-4.8-2.3-4.6-3-4.2-3.5-3.7-4-3.1-4.5-2.5-4.8-1.8-5-1.1-3.4-.3h-3.4l-5.1.6-4.9,1.4-4.7,2.1-4.3,2.7-3.9,3.3-3.4,3.9-2.8,4.3-2.1,4.7-1.4,4.9-.7,5.1-.3,16.4-.5,12.2-1,13.3-1.1,10.8-1.6,11.5-1.8,10.5-2.1,10-2.4,9.8-3,10.4-3.3,9.8-3.7,9.5-3.9,8.8-4.4,8.6-4.7,8.2-5.2,8-5.5,7.5-7.4,8.8-7.7,7.9-8.6,7.7-9.1,7-10,6.6-10.1,5.8-11.4,5.5-11.4,4.7-10.4,3.6-10.7,3.1-11.3,2.8-11.9,2.4-15.7,2.5-8.7,1-8.9.8-16.1,1-9.4.3h-11.9c0,.1-5.1.6-5.1.6l-5,1.2-3.2,1.2-3.1,1.5-4.3,2.8-2.6,2.2-2.4,2.4-3.1,4.1-2.5,4.5-1.8,4.8-1.1,5-.4,5.1.4,5.1.7,3.4,1,3.3,1.3,3.1,1.6,3,2.9,4.2,3.5,3.7,4,3.2,2.9,1.8,3.1,1.5,4.8,1.7,5,.9ZM343.2,445l8.2-4.4,7.9-4.6,7.8-5,7.6-5.3,7-5.3,7.2-5.9,6.9-6.1,6.4-6.1,6.2-6.4,6.1-6.9,5.9-7.2,5.3-7,5.3-7.6,5-7.8,4.6-7.9,4.4-8.2,4.4,8.2,4.6,7.9,5,7.8,5.3,7.6,5.3,7,5.9,7.2,6.1,6.9,6.1,6.4,6.4,6.2,6.9,6.1,7.2,5.9,7,5.3,7.6,5.3,7.8,5,7.9,4.6,8.2,4.4-8.2,4.4-7.9,4.6-7.8,5-7.6,5.3-7,5.3-7.2,5.9-6.9,6.1-6.4,6.1-6.2,6.4-6.1,6.9-5.9,7.2-5.3,7-5.3,7.6-5,7.8-4.6,7.9-4.4,8.2-4.4-8.2-4.6-7.9-5-7.8-5.3-7.6-5.3-7-5.9-7.2-6.1-6.9-6.1-6.4-6.4-6.2-6.9-6.1-7.2-5.9-7-5.3-7.6-5.3-7.8-5-7.9-4.6-8.2-4.4Z"/>
  <path id="cls-2" class="st9" d="M280,174.9v70.3l-.4,5.2-.7,3.3-1.1,3.4-1.4,3.3-1.7,3.1-1.8,2.7-2.3,2.7-2.6,2.5-2.8,2.2-3.8,2.4-4.1,1.9-4.4,1.3-4.3.7-3.5.2h-71.1l-8.9.3-9.5.8-10,1.5-9.3,2-9.6,2.6-11.2,3.9-11.3,4.8-10.4,5.4-10.5,6.5-9.8,7.1-9.4,7.9-8.8,8.5-7.7,8.7-6.4,8.3-5.6,8.3-5.4,9.1-4.5,8.8-4.1,9.3-3.4,9.4-2.9,9.7-2.3,9.9-1.7,10.1-1.1,10.3-.4,10.3.2,10.4.8,9.7,1.4,10.2,2.1,10,2.7,9.8,2.6,7.9,3,7.8,3.4,7.5,3.8,7.4,4.1,7.1,4.5,6.9,4.8,6.7,5.5,6.9,5.4,6.1,5.8,6,6.5,6,6.3,5.2,6.7,5,6.8,4.6,7,4.2,7.3,3.9,11.3,5.2,11.6,4.3,11.5,3.3,12.3,2.6,11.9,1.6,11.4.7h74.6s3.8.3,3.8.3l3,.5,3.2.8,2.8,1,2.9,1.3,2.5,1.4,2.7,1.8,2.2,1.9,2.3,2.3,3.4,4.3,2.7,4.8,1.9,5.2,1,5.2.3,4.2v71.3l.3,9.6,1,10.1,1.6,10.1,2.2,9.9,2.8,9.7,4,11.2,5,11.2,5.6,10.3,6.6,10.4,7.2,9.7,8,9.2,8.7,8.6,9.3,8,8,6,8.2,5.4,8.6,4.9,8.9,4.4,9.2,3.9,9.4,3.3,9.7,2.8,9.8,2.2,10.1,1.6,9.6.9,9.6.4,10.4-.2,10.2-.8,9.5-1.4,10-2.1,9.8-2.7,7.9-2.6,7.8-3,7.5-3.4,7.4-3.8,7.1-4.1,6.9-4.5,6.7-4.8,6.9-5.5,6.1-5.4,6-5.8,6-6.5,5.2-6.3,5-6.7,4.6-6.8,4.2-7,3.9-7.3,5.2-11.3,4.3-11.6,3.3-11.5,2.6-12.3,1.6-11.9.7-11.4v-74.6s.3-3.8.3-3.8l.5-3,.8-3.2,1-2.8,1.3-3,1.4-2.5,1.8-2.7,1.9-2.2,2.3-2.3,4.3-3.4,4.8-2.7,5.2-1.9,5.2-1,4.2-.3h71.3l9.6-.3,10.1-1,10.1-1.6,9.9-2.2,9.7-2.8,11.2-4,11.2-5,10.3-5.6,10.4-6.6,9.7-7.2,9.2-8,8.6-8.7,8-9.3,6-8,5.4-8.2,4.9-8.6,4.4-8.9,3.9-9.2,3.3-9.5,2.8-9.7,2.2-9.8,1.6-10.1.9-9.6.4-9.6-.2-10.4-.8-10.2-1.4-9.5-2.1-10-2.7-9.8-2.6-7.9-3-7.8-3.4-7.5-3.8-7.4-4.1-7.1-4.5-6.9-4.8-6.7-5.5-6.9-5.4-6.1-5.8-6-6.5-6-6.3-5.2-6.7-5-6.8-4.6-7-4.2-7.3-3.9-11.3-5.2-11.6-4.3-5.8-1.8-6.3-1.7-11.8-2.4-11.7-1.5-11.4-.7h-74.6s-3.5-.2-3.5-.2l-3-.4-2.9-.7-2.8-.9-3-1.3-2.6-1.4-2.4-1.6-2.3-1.8-2.4-2.2-3.7-4.5-1.6-2.5-1.4-2.6-1.1-2.7-.9-2.8-.7-2.9-.4-3-.2-3.5v-73.7s-.6-10.6-.6-10.6l-1.3-11.1-2.2-11.5-3-11.4-3.8-11.1-4.6-10.8-3.6-7.2-3.7-6.6-4.3-6.8-4.7-6.7-4.6-6-5.3-6.2-5.6-6-5.9-5.7-6.1-5.4-6.3-5-6.7-4.8-6.3-4.1-7.1-4.1-7.2-3.7-6.9-3.2-7.6-3-9.5-3.2-9.8-2.6-9.3-1.9-10-1.5-9.7-.8-10.4-.3-10.3.4-9.6.9-10,1.6-9.3,2-9.5,2.7-9.5,3.3-9.2,3.9-8.9,4.4-8.6,4.9-8.2,5.4-7.9,5.8-7.6,6.4-7.6,7.2-6.7,7.2-6.4,7.7-5.8,7.9-5.3,8.3-4.9,8.6-4.3,8.9-3.8,9.2-3.3,9.5-2.6,9.6-2.1,10-1.4,9.5-.9,10.1-.3,9.7ZM350,174.9l.2-6.1.6-6.4,1-5.8,1.4-6.2,1.6-5.5,2.2-5.8,2.5-5.6,2.9-5.4,3.2-5.2,3.5-5,3.9-4.8,4.1-4.5,4.8-4.6,4.7-3.9,5-3.6,5.2-3.3,5.4-2.9,5.6-2.6,5.8-2.2,5.5-1.7,6.1-1.5,5.8-1,6.4-.7,6-.3h6.1c0,0,6.5.6,6.5.6l5.9.9,6.2,1.3,5.6,1.6,5.9,2.1,5.7,2.4,5.5,2.8,7.3,4.4,7.2,5.3,6.3,5.7,6.1,6.6,5.5,7.1,4.6,7.2,4.1,8,3.2,8,2,6.4,1.4,6.2,1,6.3.6,6.5.2,5.6v72.5s.6,8.5.6,8.5l1.3,9,1.7,7.5,2.1,7,2.7,7,3.1,6.5,3.6,6.5,3.9,6,4.5,5.9,5.1,5.8,5.7,5.6,5.9,5,6.2,4.5,6.6,4.1,6.9,3.6,7.2,3.1,7.5,2.6,7.4,1.9,4.9,1,5,.7,5.1.5,5.1.3h73.4s7.6.4,7.6.4l8.3,1.1,8.1,1.8,7.8,2.4,7.5,3.1,5.1,2.5,4.9,2.8,4.7,3.1,4.5,3.4,4.3,3.7,4.4,4.2,3.8,4.2,3.6,4.4,3.3,4.6,3,4.8,2.8,5,2.5,5.1,2.2,5.3,1.8,5.5,1.5,5.6,1.1,5.2,1,6.8.5,7v7.2s-.6,7.5-.6,7.5l-1.1,6.8-1.7,7.1-2.2,6.9-2.7,6.6-3.1,6.4-3.6,6.1-4.1,5.8-4.8,5.8-5.2,5.4-5.3,4.7-5.6,4.3-5.9,3.9-4.5,2.6-4.2,2.1-4.8,2.1-4.5,1.7-5,1.6-4.7,1.2-5.3,1-4.9.7-5.5.5-5.1.2h-74.4c0,0-5.1.4-5.1.4l-5.7.6-5,.8-5.2,1.1-7.3,2.1-7.4,2.7-7.1,3.2-6.8,3.7-6.5,4.2-6.2,4.7-5.8,5.1-5.6,5.7-4.8,5.6-4.2,5.7-4,6.3-3.2,6-3,6.5-2.5,6.5-2,6.6-1.6,6.8-1.4,9-.6,9.2v73.1s-.3,7.1-.3,7.1l-.9,7.9-1.7,8.1-2.4,7.8-3,7.5-2.5,5.1-2.8,5-3.1,4.8-3.6,4.9-3.6,4.3-4.2,4.4-4.1,3.9-4.4,3.6-4.6,3.3-4.8,3.1-5,2.8-5.1,2.5-5.3,2.2-5.4,1.9-5.6,1.5-5.7,1.2-6.8,1-7,.5h-7.2s-7.5-.6-7.5-.6l-6.8-1.1-7.1-1.7-6.9-2.2-6.6-2.7-6.4-3.1-6.1-3.6-5.8-4.1-5.8-4.8-5.4-5.2-4.7-5.3-4.3-5.6-3.9-5.9-2.6-4.5-2.1-4.2-2.1-4.8-1.7-4.5-1.6-5-1.2-4.7-1.1-5.3-.7-4.9-.5-5.5-.2-5.1v-74.4c0,0-.4-5.1-.4-5.1l-.6-5.7-.8-5-1.1-5.2-2.1-7.3-2.7-7.4-3.2-7.1-3.7-6.8-4.2-6.5-4.7-6.2-5.1-5.8-5.7-5.6-5.6-4.8-5.7-4.2-6.3-4-6-3.2-6.5-3-6.4-2.5-6.6-2-6.8-1.6-9-1.4-9.2-.6h-73.1s-7.1-.3-7.1-.3l-7.9-.9-8.1-1.7-7.8-2.4-7.5-3-5.1-2.5-5-2.8-4.8-3.1-4.9-3.6-4.3-3.6-4.4-4.2-3.9-4.1-3.6-4.4-3.3-4.6-3.1-4.8-2.8-5-2.5-5.1-2.2-5.3-1.9-5.4-1.5-5.6-1.2-5.7-1-6.8-.5-7v-7.2s.6-7.5.6-7.5l1.1-6.8,1.7-7.1,2.2-6.9,2.7-6.6,3.1-6.4,3.6-6.1,4.1-5.8,4.8-5.8,5.2-5.4,5.3-4.7,5.6-4.3,5.9-3.9,4.5-2.6,4.2-2.1,4.8-2.1,4.5-1.7,5.1-1.6,4.7-1.2,5.3-1.1,4.9-.7,5.5-.5,5.1-.2h74.1s5.1-.3,5.1-.3l5.4-.6,5-.8,5.6-1.2,7-2,7.4-2.6,6.9-3,6.9-3.7,6.6-4.1,6.2-4.6,5.9-5,5.5-5.4,4.6-5.3,4.5-5.9,3.9-5.9,3.6-6.5,3.1-6.5,2.7-7,2.1-7,1.6-6.8,1.4-9,.6-9.2v-72.5Z"/>
  <path id="cls-1" class="st8" d="M171.2,479.8l20.2.5,14.3.7,14.4,1.2,13.1,1.6,12.1,2,12.3,2.5,11.7,2.9,10.6,3.2,10.8,3.8,9.7,3.9,10.1,4.8,9.3,5.1,9,5.7,8.2,5.9,8.1,6.6,7.6,7.1,7.1,7.6,6.8,8.4,6.1,8.5,5.6,9,5,9.3,4.9,10.5,4.2,10.5,3.8,11.2,2.9,10,2.7,10.9,2.4,11.9,1.8,11.4,1.7,13.9,1.2,14.9.7,13.9.2,16.4.2,3.4.9,5,1.6,4.9,2.3,4.5,1.9,2.8,2.2,2.6,3.7,3.5,4.2,2.9,4.6,2.3,4.9,1.6,5,.9h5.1c0,.1,3.4-.2,3.4-.2l5-1.1,4.8-1.8,4.5-2.5,4-3.1,3.5-3.7,3-4.2,2.3-4.5,1.7-4.9.9-5,.2-3.4.2-16.4.7-13.9,1.2-14.9,1.7-13.9,1.8-11,2.4-11.9,2.7-10.9,2.9-10,3.8-11.2,4.2-10.5,4.7-10.1,5-9.4,5.8-9.3,6-8.5,6.6-8.1,7.1-7.6,7.5-7.1,8.3-6.9,8.5-6.1,9.3-5.8,9.3-5.1,10.5-4.9,10.4-4.2,11.2-3.8,10.4-3,10.9-2.7,11.5-2.3,11.3-1.9,13.9-1.7,15.3-1.3,13.9-.7,16.4-.2,3.4-.2,5-.9,4.9-1.7,4.5-2.3,4.2-3,3.7-3.5,2.2-2.7,1.9-2.8,2.3-4.6,1.6-4.9.9-5v-5.1c.1,0-.5-5.1-.5-5.1l-.8-3.3-1.8-4.8-2.5-4.5-3.1-4.1-3.7-3.5-4.2-3-4.5-2.3-4.9-1.6-5-.9-3.4-.2-16.4-.2-13.9-.7-14.9-1.2-13.9-1.7-11.4-1.8-11.9-2.4-10.9-2.7-10-2.9-11.2-3.8-10.5-4.2-10.1-4.7-9.3-5-9-5.6-8.5-6-8.1-6.6-7.6-7.1-7.1-7.5-6.9-8.3-6.1-8.5-5.8-9.3-5.1-9.3-4.9-10.5-4.2-10.4-3.8-11.2-3-10.4-2.7-10.9-2.3-11.6-1.9-11.4-1.7-13.9-1.3-15.3-.7-13.9-.2-16.4-.2-3.4-.9-5-1.7-4.8-2.3-4.6-3-4.2-3.5-3.7-4-3.1-4.5-2.5-4.8-1.8-5-1.1-3.4-.3h-3.4l-5.1.6-4.9,1.4-4.7,2.1-4.3,2.7-3.9,3.3-3.4,3.9-2.8,4.3-2.1,4.7-1.4,4.9-.7,5.1-.3,16.4-.5,12.2-1,13.3-1.1,10.8-1.6,11.5-1.8,10.5-2.1,10-2.4,9.8-3,10.4-3.3,9.8-3.7,9.5-3.9,8.8-4.4,8.6-4.7,8.2-5.2,8-5.5,7.5-7.4,8.8-7.7,7.9-8.6,7.7-9.1,7-10,6.6-10.1,5.8-11.4,5.5-11.4,4.7-10.4,3.6-10.7,3.1-11.3,2.8-11.9,2.4-15.7,2.5-8.7,1-8.9.8-16.1,1-9.4.3h-11.9c0,.1-5.1.6-5.1.6l-5,1.2-3.2,1.2-3.1,1.5-4.3,2.8-2.6,2.2-2.4,2.4-3.1,4.1-2.5,4.5-1.8,4.8-1.1,5-.4,5.1.4,5.1.7,3.4,1,3.3,1.3,3.1,1.6,3,2.9,4.2,3.5,3.7,4,3.2,2.9,1.8,3.1,1.5,4.8,1.7,5,.9ZM343.2,445l8.2-4.4,7.9-4.6,7.8-5,7.6-5.3,7-5.3,7.2-5.9,6.9-6.1,6.4-6.1,6.2-6.4,6.1-6.9,5.9-7.2,5.3-7,5.3-7.6,5-7.8,4.6-7.9,4.4-8.2,4.4,8.2,4.6,7.9,5,7.8,5.3,7.6,5.3,7,5.9,7.2,6.1,6.9,6.1,6.4,6.4,6.2,6.9,6.1,7.2,5.9,7,5.3,7.6,5.3,7.8,5,7.9,4.6,8.2,4.4-8.2,4.4-7.9,4.6-7.8,5-7.6,5.3-7,5.3-7.2,5.9-6.9,6.1-6.4,6.1-6.2,6.4-6.1,6.9-5.9,7.2-5.3,7-5.3,7.6-5,7.8-4.6,7.9-4.4,8.2-4.4-8.2-4.6-7.9-5-7.8-5.3-7.6-5.3-7-5.9-7.2-6.1-6.9-6.1-6.4-6.4-6.2-6.9-6.1-7.2-5.9-7-5.3-7.6-5.3-7.8-5-7.9-4.6-8.2-4.4Z"/>
</svg>
