<?xml version="1.0" encoding="UTF-8"?>
<svg id="Calque_1" data-name="Calque 1" xmlns="http://www.w3.org/2000/svg" viewBox="17 55 450 88">
  <defs>
    <style>
      .cls-1 {
        fill: #274760;
      }

      .cls-2 {
        isolation: isolate;
      }

      .cls-3 {
        fill: #2b6fd6;
      }

      .cls-4 {
        fill: none;
        stroke: #2b6fd6;
        stroke-linecap: round;
        stroke-linejoin: round;
        stroke-width: 7px;
      }
    </style>
  </defs>
  <g>
    <path class="cls-4" d="M53.22,59.62l-31.11,11.67v23.33c0,19.44,13.61,33.05,31.11,42.77,17.5-9.72,31.11-23.33,31.11-42.77v-23.33l-31.11-11.67Z"/>
    <path class="cls-4" d="M53.22,82.95v23.33M41.55,94.61h23.33"/>
  </g>
  <g class="cls-2">
    <path class="cls-1" d="M109.87,116.98v-40.35h8.59l11.76,17.41,11.76-17.41h8.53v40.35h-7.84v-28.01l-12.45,18.33-12.45-18.27v27.96h-7.9Z"/>
    <path class="cls-1" d="M171.2,117.67c-2.84,0-5.36-.64-7.55-1.93s-3.91-3.06-5.16-5.33c-1.25-2.27-1.87-4.88-1.87-7.84s.64-5.57,1.93-7.84c1.29-2.27,3.06-4.04,5.3-5.33,2.25-1.29,4.83-1.93,7.75-1.93,2.54,0,4.87.66,7,1.99s3.84,3.27,5.13,5.82c1.29,2.56,1.93,5.66,1.93,9.31h-21.1c.19,1.92,1.02,3.45,2.48,4.58,1.46,1.13,3.11,1.7,4.96,1.7,1.58,0,2.86-.34,3.86-1.01,1-.67,1.77-1.55,2.31-2.62l6.8,2.65c-.81,1.61-1.85,3.01-3.14,4.18-1.29,1.17-2.82,2.07-4.58,2.68-1.77.61-3.79.92-6.05.92ZM164.97,98.94h12.45c-.12-1.19-.5-2.15-1.15-2.88-.65-.73-1.42-1.27-2.31-1.61-.88-.35-1.75-.52-2.59-.52s-1.68.16-2.62.49c-.94.33-1.77.86-2.48,1.59-.71.73-1.14,1.71-1.3,2.94Z"/>
    <path class="cls-1" d="M201.58,117.67c-2.65,0-4.95-.62-6.89-1.84-1.94-1.23-3.45-2.98-4.52-5.25-1.08-2.27-1.61-4.94-1.61-8.01s.54-5.79,1.61-8.04c1.08-2.25,2.58-3.99,4.52-5.22,1.94-1.23,4.24-1.84,6.89-1.84,1.88,0,3.56.39,5.04,1.18,1.48.79,2.68,1.91,3.6,3.37v-15.39h7.61v40.35h-7.21l-.23-4.04c-.96,1.5-2.19,2.66-3.69,3.49-1.5.83-3.21,1.24-5.13,1.24ZM203.54,110.7c1.27,0,2.39-.32,3.37-.95.98-.63,1.76-1.53,2.33-2.68.58-1.15.9-2.46.98-3.92v-1.15c-.08-1.46-.4-2.76-.98-3.89-.58-1.13-1.36-2.02-2.36-2.65-1-.63-2.13-.95-3.4-.95-1.38,0-2.6.34-3.66,1.01-1.06.67-1.88,1.62-2.48,2.85-.6,1.23-.89,2.63-.89,4.21s.31,2.98.92,4.21c.61,1.23,1.45,2.19,2.51,2.88,1.06.69,2.28,1.04,3.66,1.04Z"/>
    <path class="cls-1" d="M228.67,83.49c-1.15,0-2.17-.43-3.06-1.3-.88-.86-1.33-1.89-1.33-3.08s.44-2.22,1.33-3.08c.88-.86,1.9-1.3,3.06-1.3s2.22.43,3.08,1.3c.86.86,1.3,1.89,1.3,3.08s-.43,2.22-1.3,3.08-1.89,1.3-3.08,1.3ZM224.86,116.98v-28.82h7.61v28.82h-7.61Z"/>
    <path class="cls-1" d="M258.41,117.67c-3.92,0-7.4-.89-10.43-2.68-3.04-1.79-5.42-4.25-7.15-7.38-1.73-3.13-2.59-6.73-2.59-10.81s.86-7.68,2.59-10.81c1.73-3.13,4.1-5.59,7.12-7.38,3.02-1.79,6.49-2.68,10.41-2.68,2.77,0,5.34.49,7.72,1.47s4.47,2.34,6.25,4.09c1.79,1.75,3.16,3.76,4.12,6.02l-7.32,2.71c-.65-1.42-1.52-2.66-2.59-3.72-1.08-1.06-2.3-1.88-3.69-2.48-1.38-.6-2.88-.89-4.5-.89-2.34,0-4.43.59-6.25,1.76-1.83,1.17-3.25,2.78-4.27,4.81s-1.53,4.4-1.53,7.09.52,5.06,1.56,7.12,2.48,3.67,4.32,4.84c1.84,1.17,3.96,1.76,6.34,1.76,1.65,0,3.16-.32,4.53-.95,1.36-.63,2.57-1.51,3.63-2.62s1.91-2.4,2.56-3.86l7.32,2.65c-.96,2.34-2.34,4.42-4.12,6.23-1.79,1.81-3.87,3.21-6.25,4.21-2.38,1-4.98,1.5-7.78,1.5Z"/>
    <path class="cls-1" d="M290.63,117.67c-3.46,0-6.14-.77-8.04-2.31-1.9-1.54-2.85-3.71-2.85-6.51,0-3.07,1.03-5.39,3.08-6.95,2.05-1.56,4.95-2.33,8.67-2.33h6.8c-.27-1.77-.83-3.12-1.67-4.06-.85-.94-2.06-1.41-3.63-1.41-1.23,0-2.34.27-3.34.81-1,.54-1.84,1.36-2.54,2.48l-6.69-2.31c.54-1.23,1.33-2.43,2.36-3.6,1.04-1.17,2.39-2.13,4.06-2.88,1.67-.75,3.72-1.12,6.14-1.12,2.92,0,5.35.56,7.29,1.67,1.94,1.11,3.38,2.68,4.32,4.7.94,2.02,1.39,4.41,1.35,7.18l-.17,15.97h-7.09l-.12-3.34c-.73,1.31-1.76,2.31-3.08,3-1.33.69-2.95,1.04-4.87,1.04ZM291.9,111.33c1.23,0,2.34-.29,3.34-.87,1-.58,1.79-1.33,2.36-2.25.58-.92.86-1.88.86-2.88v-.12h-4.32c-2.5,0-4.23.3-5.19.89-.96.6-1.44,1.43-1.44,2.51,0,.85.38,1.51,1.15,1.99.77.48,1.84.72,3.23.72Z"/>
    <path class="cls-1" d="M312.01,116.98v-28.82h7.61v5.3c1.19-1.81,2.7-3.16,4.52-4.06,1.83-.9,3.72-1.35,5.68-1.35v7.38c-1.77,0-3.43.21-4.99.63-1.56.42-2.82,1.11-3.78,2.07-.96.96-1.44,2.19-1.44,3.69v15.16h-7.61Z"/>
    <path class="cls-1" d="M346.89,117.67c-2.84,0-5.36-.64-7.55-1.93s-3.91-3.06-5.16-5.33c-1.25-2.27-1.87-4.88-1.87-7.84s.64-5.57,1.93-7.84c1.29-2.27,3.05-4.04,5.3-5.33,2.25-1.29,4.83-1.93,7.75-1.93,2.54,0,4.87.66,7,1.99s3.84,3.27,5.13,5.82c1.29,2.56,1.93,5.66,1.93,9.31h-21.1c.19,1.92,1.02,3.45,2.48,4.58,1.46,1.13,3.11,1.7,4.96,1.7,1.58,0,2.86-.34,3.86-1.01,1-.67,1.77-1.55,2.31-2.62l6.8,2.65c-.81,1.61-1.85,3.01-3.14,4.18-1.29,1.17-2.82,2.07-4.58,2.68-1.77.61-3.79.92-6.05.92ZM340.66,98.94h12.45c-.12-1.19-.5-2.15-1.15-2.88-.65-.73-1.42-1.27-2.31-1.61-.88-.35-1.75-.52-2.59-.52s-1.68.16-2.62.49c-.94.33-1.77.86-2.48,1.59-.71.73-1.14,1.71-1.3,2.94Z"/>
    <path class="cls-3" d="M380.61,116.98v-40.35h14.99c2.84,0,5.36.57,7.55,1.7,2.19,1.13,3.9,2.71,5.13,4.73,1.23,2.02,1.84,4.35,1.84,7s-.6,4.94-1.79,6.98c-1.19,2.04-2.82,3.64-4.9,4.81-2.08,1.17-4.48,1.76-7.21,1.76h-7.72v13.37h-7.9ZM388.5,96.34h7.55c1.77,0,3.22-.59,4.35-1.76,1.13-1.17,1.7-2.68,1.7-4.52s-.62-3.34-1.87-4.5c-1.25-1.15-2.85-1.73-4.81-1.73h-6.92v12.51Z"/>
    <path class="cls-3" d="M414.15,116.98v-28.82h7.61v5.3c1.19-1.81,2.7-3.16,4.52-4.06,1.83-.9,3.72-1.35,5.68-1.35v7.38c-1.77,0-3.43.21-4.99.63-1.56.42-2.82,1.11-3.78,2.07-.96.96-1.44,2.19-1.44,3.69v15.16h-7.61Z"/>
    <path class="cls-3" d="M449.55,117.67c-2.96,0-5.57-.64-7.84-1.93-2.27-1.29-4.04-3.06-5.33-5.33-1.29-2.27-1.93-4.88-1.93-7.84s.63-5.57,1.9-7.84c1.27-2.27,3.04-4.04,5.3-5.33,2.27-1.29,4.86-1.93,7.78-1.93s5.57.64,7.84,1.93c2.27,1.29,4.04,3.06,5.3,5.33,1.27,2.27,1.9,4.88,1.9,7.84s-.63,5.57-1.9,7.84c-1.27,2.27-3.03,4.04-5.27,5.33s-4.83,1.93-7.75,1.93ZM449.55,110.64c1.42,0,2.66-.35,3.72-1.04,1.06-.69,1.89-1.64,2.51-2.85.61-1.21.92-2.6.92-4.18s-.31-2.97-.92-4.18c-.62-1.21-1.47-2.16-2.57-2.85-1.09-.69-2.33-1.04-3.72-1.04s-2.68.35-3.78,1.04c-1.09.69-1.95,1.64-2.56,2.85-.62,1.21-.92,2.6-.92,4.18s.31,2.97.92,4.18c.61,1.21,1.48,2.16,2.59,2.85,1.11.69,2.38,1.04,3.8,1.04Z"/>
  </g>
</svg>
