<?xml version="1.0" encoding="UTF-8"?>
<svg id="Calque_1" xmlns="http://www.w3.org/2000/svg" xmlns:xlink="http://www.w3.org/1999/xlink" viewBox="51 62 344 71">
  <defs>
    <style>
      .cls-1 {
        fill: url(#gradMP3);
      }

      .cls-1, .cls-3, .cls-4, .cls-5, .cls-6, .cls-7, .cls-8, .cls-9, .cls-10, .cls-11 {
        fill-rule: evenodd;
      }

      .cls-3 {
        fill: #2e6fd0;
      }

      .cls-4 {
        fill: #eea700;
      }

      .cls-5 {
        fill: #1fb6a8;
      }

      .cls-12 {
        isolation: isolate;
      }

      .cls-6 {
        fill: url(#gradMP5-2);
      }

      .cls-13, .cls-8 {
        fill: #274760;
      }

      .cls-7 {
        fill: #9d24b2;
      }

      .cls-9 {
        fill: url(#gradMP5);
      }

      .cls-10 {
        fill: url(#gradMP4);
      }

      .cls-14 {
        opacity: .45;
      }

      .cls-11 {
        fill: url(#gradMP4-2);
      }
    </style>
    <linearGradient id="gradMP4" x1="200.92" y1="-647.75" x2="200.99" y2="-647.67" gradientTransform="translate(-388540.3125 -180763.7578) rotate(90) scale(900 600)" gradientUnits="userSpaceOnUse">
      <stop offset="0" stop-color="#1fb6a8"/>
      <stop offset=".2" stop-color="#2e6fd0"/>
      <stop offset=".4" stop-color="#eea700"/>
      <stop offset=".6" stop-color="#8a2be2"/>
      <stop offset=".8" stop-color="#6ac6de"/>
      <stop offset="1" stop-color="#4cc96b"/>
    </linearGradient>
    <linearGradient id="gradMP4-2" x1="201.99" y1="-647.72" x2="202.06" y2="-647.65" gradientTransform="translate(181909.6484 -388513.75) rotate(-180) scale(900 600)" xlink:href="#gradMP4"/>
    <linearGradient id="gradMP3" x1="200.34" y1="-649.38" x2="200.39" y2="-649.3" gradientTransform="translate(-108109 350741) scale(540)" gradientUnits="userSpaceOnUse">
      <stop offset="0" stop-color="#1fb6a8"/>
      <stop offset=".35" stop-color="#2e6fd0"/>
      <stop offset=".65" stop-color="#8a2be2"/>
      <stop offset="1" stop-color="#4cc96b"/>
    </linearGradient>
    <linearGradient id="gradMP5" x1="54.08" y1="104.59" x2="118.71" y2="104.59" gradientTransform="translate(0 202) scale(1 -1)" gradientUnits="userSpaceOnUse">
      <stop offset="0" stop-color="#1fb6a8"/>
      <stop offset=".2" stop-color="#2e6fd0"/>
      <stop offset=".4" stop-color="#8a2be2"/>
      <stop offset=".6" stop-color="#eea700"/>
      <stop offset=".8" stop-color="#6ac6de"/>
      <stop offset="1" stop-color="#4cc96b"/>
    </linearGradient>
    <linearGradient id="gradMP5-2" x1="63.73" x2="109.05" xlink:href="#gradMP5"/>
  </defs>
  <g id="ORBITES" class="cls-14">
    <path class="cls-10" d="M97.01,77.44l-1.17-.6-1.19-.57-1.34-.6-1.21-.5-1.22-.47-1.23-.44-1.23-.4-1.24-.36-1.24-.33-1.24-.29-1.24-.25-1.23-.21-1.23-.18-1.22-.14-1.21-.1-1.19-.06-1.18-.02-1.17.02-1.15.06-1.13.1-1.11.14-1.09.17-1.06.21-1.04.25-1.01.29-.98.33-.95.36-.92.4-.89.44-.85.47-.82.51-.78.54-.74.58-.7.61-.66.64-.62.67-.57.7-.53.73-.48.75-.44.78-.39.8-.34.83-.3.85-.25.87-.2.89-.15.91-.1.92-.05.94v.95s.04.96.04.96l.1.97.14.98.19.99.24.99.29,1,.34,1,.38,1,.43,1,.47,1,.52.99.56.99.6.98.65.98.69.97.56.74.5.63.6.73.63.72.56.61.67.7.69.69.71.68.62.58.74.66.76.65.78.63.68.53.81.61.83.59.84.58.73.48.87.55.88.53.89.51.9.49.91.48.92.46.8.38.93.42.94.4.95.38.82.31.96.34.96.32.96.3.83.24.96.26.96.23.96.21.82.16.96.17.95.15.95.12.81.09.94.08.93.06.92.03h.79s.91,0,.91,0l.9-.03.89-.06.75-.07.86-.1.85-.13.84-.15.71-.15.81-.19.79-.21.78-.24.65-.22.74-.28.72-.3.7-.32.59-.3.67-.36.64-.38.62-.41.52-.37.58-.45.55-.46.53-.48.44-.43.48-.52.46-.53.37-.47.41-.57.38-.58.31-.52.33-.61.26-.54.27-.64.25-.65.19-.57.19-.68.16-.69.12-.6.11-.71.08-.72.04-.62.02-.73v-.74s-.04-.75-.04-.75l-.05-.65-.09-.76-.12-.76-.15-.77-.15-.66-.2-.77-.23-.77-.26-.78-.25-.67-.31-.78-.34-.78-.37-.78-.34-.66-.42-.77-.44-.77-.47-.76-.42-.65-.52-.76-.54-.75-.57-.74-.5-.63-.61-.73-.63-.72-.65-.71-.58-.6-.69-.69-.71-.68-.73-.67-.64-.56-.77-.65-.78-.63-.8-.62-.7-.52-.83-.59-.84-.57-.86-.56-.75-.47-.88-.53-.89-.51-.9-.49ZM96.7,78.03l1.02.56,1.13.65,1.11.68,1.09.71.95.65,1.04.76,1.02.78.99.8.85.73.93.84.9.86.87.88.83.9.8.91.76.92.72.94.61.84.65.95.61.96.56.97.52.97.48.97.43.98.39.98.31.87.3.97.25.97.21.96.16.95.11.94.07.93.02.92-.02.81-.07.9-.12.88-.16.86-.21.84-.26.82-.3.8-.35.78-.39.76-.44.74-.48.71-.53.68-.57.66-.61.63-.65.6-.69.57-.73.54-.77.51-.8.48-.84.44-.87.41-.91.37-.94.34-.86.27-.99.27-1.02.23-1.05.2-1.07.16-1.09.12-1.11.08-1.13.04h-1.02s-.9-.01-.9-.01l-.91-.04-.92-.07-.93-.09-.93-.11-.94-.14-.94-.16-.81-.15-.95-.2-.95-.22-.95-.24-.81-.23-.95-.29-.95-.31-.94-.33-.81-.3-.94-.37-.93-.39-1.71-.77-.91-.44-.9-.46-1.65-.91-1.61-.97-.85-.54-.84-.56-.71-.49-.81-.59-.79-.6-.78-.62-.65-.54-.75-.64-.73-.65-.71-.67-.59-.58-.67-.68-.65-.7-.63-.7-.52-.61-.59-.72-.57-.73-.54-.73-.52-.74-.49-.74-.47-.75-.44-.75-.36-.65-.39-.76-.37-.76-.34-.76-.27-.65-.29-.76-.26-.76-.23-.76-.18-.65-.18-.75-.15-.75-.12-.74-.1-.74-.07-.73-.04-.72v-.72s0-.61,0-.61l.04-.7.07-.69.1-.68.13-.67.16-.66.18-.65.21-.64.24-.62.27-.61.29-.6.32-.58.35-.57.37-.55.4-.54.36-.45.45-.51.47-.49.5-.47.52-.45.55-.44.57-.42.59-.4.53-.33.63-.36.65-.34.68-.32.6-.26.71-.28.73-.26.75-.24.66-.19.78-.2.8-.17.81-.15.83-.13.84-.11.86-.08.87-.06.75-.03.89-.02h.9s.91.03.91.03l.78.04.92.07.93.1.93.12.8.12.94.16.94.18.95.21.95.23.95.25.95.27.95.29.81.27.94.33.94.36,1.73.71.92.41.92.43,1.68.85Z"/>
    <path class="cls-11" d="M102.68,67.84l-.88-.47-.54-.25-.46-.2-.56-.21-.48-.16-.58-.17-.49-.13-.59-.14-.6-.11-.51-.08-.61-.07-.52-.04-.62-.03h-.63s-.53,0-.53,0l-.64.03-1.19.11-1.2.18-1.21.25-.66.17-.66.19-1.22.4-1.22.47-.67.29-.67.31-1.22.62-1.21.68-1.2.74-1.19.81-1.28.95-1.15.93-1.13.99-1.21,1.14-1.08,1.1-1.05,1.14-1.11,1.3-.99,1.24-.95,1.28-.91,1.32-.95,1.47-.83,1.38-.85,1.54-.74,1.44-.75,1.59-.64,1.48-.63,1.63-.53,1.5-.47,1.51-.46,1.65-.36,1.51-.3,1.51-.27,1.64-.18,1.49-.13,1.48-.07,1.59v1.44s.05,1.41.05,1.41l.11,1.38.17,1.35.12.72.13.71.29,1.28.35,1.24.21.66.23.64.47,1.14.52,1.1.57,1.05.34.55.29.45.36.52.38.5.33.4.4.47.35.38.43.43.37.35.45.4.39.32.48.36.41.29.5.33.43.26.52.29.45.23.54.25.46.19.56.21.48.16.58.17.49.13.59.13.6.11.51.08.61.07.52.04.62.03h.63s.53,0,.53,0l.64-.03,1.19-.11,1.2-.18,1.21-.25.66-.17.66-.19,1.22-.4,1.22-.47.67-.29.67-.31,1.22-.62,1.21-.68,1.2-.74,1.19-.81,1.28-.95,1.15-.93,1.13-.99,1.21-1.14,1.08-1.1,1.05-1.14,1.11-1.3.99-1.24.95-1.28.91-1.31.95-1.47.83-1.38.85-1.54.74-1.44.75-1.59.64-1.48.63-1.63.53-1.5.47-1.51.46-1.65.36-1.51.3-1.51.27-1.64.18-1.49.13-1.48.07-1.59v-1.44s-.05-1.41-.05-1.41l-.11-1.38-.17-1.35-.12-.72-.13-.71-.29-1.28-.35-1.24-.21-.66-.23-.64-.47-1.15-.52-1.1-.57-1.05-.33-.55-.29-.45-.36-.52-.38-.5-.33-.41-.4-.47-.35-.38-.43-.43-.44-.42-.38-.33-.47-.38-.4-.3-.49-.34-.42-.27-.51-.31ZM101.93,68.19l.5.28.49.3.48.32.39.28.46.35.44.37.43.39.35.34.41.42.39.44.38.46.31.4.64.91.59.97.3.55.29.57.49,1.08.44,1.12.38,1.17.19.66.17.67.27,1.26.21,1.29.16,1.33.11,1.49.04,1.39-.02,1.42-.08,1.44-.15,1.59-.2,1.47-.25,1.48-.31,1.49-.4,1.63-.42,1.49-.48,1.49-.53,1.48-.58,1.47-.63,1.46-.68,1.44-.73,1.42-.77,1.4-.81,1.37-.86,1.34-.89,1.3-.93,1.27-.97,1.23-1,1.19-1.12,1.24-1.06,1.09-1.09,1.04-1.11.98-1.23,1.01-1.15.87-1.16.81-1.17.75-1.29.74-1.19.61-1.19.55-1.19.48-.65.23-.65.21-1.18.34-1.18.27-1.16.2-.63.08-.63.06-1.13.05-1.11-.02-.5-.03-.59-.06-.59-.08-.58-.1-.48-.1-.56-.14-.56-.16-.55-.18-.45-.17-.53-.22-.52-.24-.51-.26-.5-.28-.49-.3-.48-.32-.39-.28-.45-.35-.44-.37-.43-.39-.35-.34-.41-.42-.39-.44-.38-.46-.31-.4-.64-.91-.59-.97-.3-.55-.29-.57-.49-1.08-.44-1.12-.38-1.17-.19-.66-.17-.67-.27-1.26-.21-1.29-.16-1.33-.11-1.49-.04-1.39.02-1.41.08-1.44.15-1.59.2-1.47.25-1.48.31-1.49.4-1.63.42-1.49.48-1.49.53-1.48.58-1.47.63-1.46.68-1.44.73-1.42.77-1.39.81-1.37.86-1.34.89-1.3.93-1.27.97-1.23,1-1.19,1.12-1.24,1.06-1.09,1.09-1.04,1.11-.99,1.23-1.01,1.15-.87,1.16-.81,1.17-.75,1.29-.74,1.19-.61,1.19-.55,1.19-.48.65-.23.65-.21,1.18-.34,1.18-.27,1.16-.2.63-.08.63-.06,1.13-.05,1.11.02.5.03.59.06.59.08.58.1.48.1.56.14.55.16.55.18.45.17.53.22.52.24.51.26Z"/>
  </g>
  <path class="cls-4" d="M114.36,97.41v-.2s-.04-.2-.04-.2l-.05-.21-.07-.19-.09-.18-.1-.17-.13-.18-.13-.15-.15-.13-.18-.13-.17-.1-.18-.09-.19-.07-.21-.05-.2-.03h-.2s-.2,0-.2,0l-.2.03-.21.05-.19.07-.18.09-.17.1-.16.12-.16.15-.13.15-.13.18-.1.17-.09.18-.07.19-.05.21-.03.2v.2s0,.2,0,.2l.03.2.05.21.07.19.09.18.1.17.13.18.13.15.15.13.18.13.17.1.18.09.19.07.21.05.2.03h.2s.2,0,.2,0l.2-.03.21-.05.19-.07.18-.09.17-.1.18-.13.15-.13.13-.15.13-.18.1-.17.09-.18.07-.19.05-.21.03-.2v-.2Z"/>
  <path class="cls-3" d="M66.33,97.41v-.22s-.04-.2-.04-.2l-.05-.19-.07-.19-.09-.18-.11-.19-.12-.16-.13-.15-.15-.13-.18-.13-.17-.1-.18-.09-.19-.07-.21-.05-.2-.03h-.2s-.2,0-.2,0l-.2.03-.21.05-.19.07-.18.09-.17.1-.16.12-.16.15-.15.16-.12.16-.1.17-.09.18-.07.19-.05.19-.03.2v.22s0,.22,0,.22l.03.2.05.19.07.19.09.18.11.19.12.16.13.15.15.13.18.13.17.1.18.09.19.07.21.05.2.03h.2s.2,0,.2,0l.2-.03.21-.05.19-.07.18-.09.17-.1.18-.13.15-.13.13-.15.12-.16.11-.19.09-.18.07-.19.05-.19.03-.2v-.22Z"/>
  <path class="cls-5" d="M64.61,97.41v-.22s-.04-.2-.04-.2l-.05-.19-.07-.19-.09-.2-.1-.17-.12-.16-.13-.15-.15-.13-.16-.12-.17-.1-.2-.09-.19-.07-.19-.05-.2-.03h-.22s-.22,0-.22,0l-.2.03-.19.05-.19.07-.18.09-.19.11-.16.12-.15.13-.13.15-.12.16-.1.17-.09.2-.07.19-.05.19-.03.2v.22s0,.22,0,.22l.03.2.05.19.07.19.09.2.1.17.12.16.13.15.15.13.16.12.17.1.2.09.19.07.19.05.2.03h.22s.22,0,.22,0l.2-.03.19-.05.19-.07.18-.09.19-.11.16-.12.15-.13.13-.15.12-.16.11-.19.09-.18.07-.19.05-.19.03-.2v-.22Z"/>
  <path class="cls-7" d="M108.94,97.41v-.2s-.04-.2-.04-.2l-.05-.21-.07-.19-.09-.18-.1-.17-.13-.18-.13-.15-.15-.13-.16-.12-.19-.11-.18-.09-.19-.07-.19-.05-.22-.03h-.2s-.2,0-.2,0l-.22.03-.19.05-.19.07-.18.09-.19.11-.16.12-.15.13-.13.15-.12.16-.1.17-.09.2-.07.19-.05.21-.03.2v.2s0,.2,0,.2l.03.2.05.21.07.19.09.18.1.17.13.18.13.15.15.13.18.13.17.1.18.09.19.07.19.05.2.03h.22s.22,0,.22,0l.2-.03.19-.05.19-.07.18-.09.19-.11.16-.12.15-.13.13-.15.13-.18.1-.17.09-.18.07-.19.05-.21.03-.2v-.2Z"/>
  <path id="ruban-croix" class="cls-8" d="M73.39,77.34v5.44s-.05.19-.05.19l-.05.18-.07.18-.1.18-.12.17-.12.14-.14.13-.16.13-.22.13-.22.09-.25.07-.25.03h-5.45s-.5.02-.5.02l-.55.04-.67.08-.71.12-.67.15-.68.2-.88.31-.42.18-.46.21-.82.44-.43.26-.39.26-.76.56-.73.63-.68.68-.63.73-.48.63-.45.69-.4.69-.37.74-.31.74-.26.75-.22.77-.17.78-.12.8-.07.81-.02.82.03.81.08.81.13.8.18.78.22.76.2.58.25.61.28.59.3.57.32.54.36.54.38.52.41.5.43.48.45.46.48.43.5.41.52.38.54.36.56.33.53.28.47.23.47.2.44.17.48.17.46.14.5.13.47.1.51.09.87.11.89.05h5.65s.33.07.33.07l.32.12.29.18.26.23.18.23.14.25.1.27.06.29v.21s.01,5.3.01,5.3l.03.82.08.79.13.8.18.78.23.78.15.44.18.47.39.85.23.45.23.41.27.42.26.39.58.76.64.72.69.67.74.62.64.47.65.42.72.4.71.34.74.3.75.25.77.21.77.16.8.11.76.06.82.02.81-.03.76-.08.8-.13.76-.17.76-.22.58-.2.61-.25.59-.28.57-.3.54-.32.54-.36.52-.38.5-.41.48-.43.46-.45.43-.48.41-.5.38-.52.36-.54.33-.56.28-.53.23-.47.2-.47.17-.44.17-.48.14-.46.13-.5.1-.47.09-.51.11-.87.05-.89v-5.65s.07-.33.07-.33l.12-.32.18-.29.23-.26.23-.18.25-.14.27-.1.29-.06h.21s5.3-.01,5.3-.01l.82-.03.79-.08.8-.13.78-.18.78-.23.44-.15.47-.18.85-.39.45-.23.41-.23.42-.27.39-.26.76-.58.72-.64.67-.69.62-.74.47-.64.42-.65.4-.72.34-.71.3-.74.25-.75.21-.77.16-.77.11-.8.06-.76.02-.82-.03-.81-.08-.76-.13-.8-.17-.76-.22-.76-.2-.58-.25-.61-.28-.59-.3-.57-.32-.54-.36-.54-.38-.52-.41-.5-.43-.48-.45-.46-.48-.43-.5-.41-.52-.38-.54-.36-.56-.33-.53-.28-.47-.23-.47-.2-.44-.17-.48-.17-.51-.15-.47-.12-.51-.11-.48-.08-.87-.11-.87-.05h-5.65s-.31-.06-.31-.06l-.31-.11-.28-.16-.25-.21-.21-.25-.16-.28-.11-.31-.05-.31v-5.64s-.05-.84-.05-.84l-.1-.86-.18-.94-.12-.5-.13-.46-.16-.48-.17-.45-.2-.47-.2-.43-.29-.56-.3-.52-.34-.53-.38-.52-.37-.47-.42-.48-.45-.46-.47-.44-.49-.42-.5-.38-.53-.37-.51-.32-.57-.32-.57-.28-.6-.26-.57-.22-.76-.24-.76-.19-.74-.14-.79-.1-.77-.05h-.8s-.77.03-.77.03l-.79.09-.75.13-.76.18-.72.21-.74.27-.71.3-.7.35-.67.39-.64.43-.62.47-.59.5-.57.55-.52.57-.49.6-.45.63-.42.65-.38.68-.34.71-.29.71-.25.75-.2.72-.16.77-.11.75-.07.8-.02.76ZM80.08,77.35v-.41s.05-.43.05-.43l.06-.39.09-.41.12-.4.14-.39.17-.37.19-.36.22-.35.24-.33.26-.32.3-.32.32-.3.32-.26.33-.24.35-.21.36-.19.37-.17.39-.14.4-.12.41-.09.42-.07.43-.04h.41s.4,0,.4,0l.43.04.39.06.41.1.4.12.39.15.37.17.36.19.48.31.45.35.43.41.38.42.34.45.29.48.25.51.21.53.12.4.09.41.07.42.04.43v5.77s.06.75.06.75l.12.73.13.55.18.59.22.55.26.55.29.51.33.5.35.46.39.45.45.44.48.41.51.37.53.33.56.3.59.25.61.21.58.16.4.08.41.06.41.04.42.02h5.52s.47.02.47.02l.52.06.54.11.52.16.5.2.34.17.36.2.32.21.33.24.29.24.29.28.28.3.24.29.24.33.2.32.19.36.16.34.14.35.12.36.1.37.07.38.06.49.02.47v.48s-.07.49-.07.49l-.08.45-.12.47-.16.45-.19.43-.22.42-.25.4-.28.38-.33.38-.36.35-.36.3-.41.29-.4.25-.59.29-.59.22-.62.16-.65.1-.6.03h-5.55s-.42.03-.42.03l-.46.05-.4.07-.43.09-.59.17-.6.22-.54.24-.56.3-.53.34-.5.38-.47.41-.44.44-.39.45-.35.46-.33.5-.27.48-.25.53-.2.52-.17.54-.14.55-.07.4-.05.38-.05.75v5.47s-.02.44-.02.44l-.06.52-.11.54-.14.49-.19.5-.16.34-.2.36-.2.32-.24.33-.26.31-.28.3-.3.28-.29.24-.33.24-.32.2-.36.2-.34.16-.38.15-.36.12-.37.1-.38.07-.49.06-.47.02h-.48s-.49-.07-.49-.07l-.45-.08-.47-.12-.45-.16-.43-.19-.42-.22-.4-.25-.38-.28-.38-.33-.35-.36-.3-.36-.29-.41-.25-.4-.29-.59-.22-.59-.16-.62-.1-.65-.03-.6v-5.55s-.03-.42-.03-.42l-.05-.46-.07-.4-.09-.43-.17-.59-.22-.6-.24-.54-.3-.56-.34-.53-.38-.5-.41-.47-.44-.44-.45-.39-.46-.35-.5-.33-.48-.27-.53-.25-.52-.2-.54-.17-.55-.14-.4-.07-.38-.05-.75-.05h-5.47s-.44-.02-.44-.02l-.52-.06-.54-.11-.49-.14-.5-.19-.34-.16-.36-.2-.32-.2-.33-.24-.31-.26-.3-.28-.28-.3-.24-.29-.24-.33-.2-.32-.2-.36-.16-.34-.15-.38-.12-.36-.1-.37-.07-.38-.06-.49-.02-.47v-.48s.07-.49.07-.49l.08-.45.12-.47.16-.45.19-.43.22-.42.25-.4.28-.38.33-.38.36-.35.36-.3.41-.29.4-.25.59-.29.59-.22.62-.16.65-.1.6-.03h5.55s.42-.03.42-.03l.41-.04.41-.06.45-.09.58-.16.58-.2.54-.24.56-.29.51-.32.51-.37.48-.4.45-.44.38-.43.36-.47.32-.48.3-.52.26-.53.21-.52.19-.58.14-.55.13-.76.04-.41.02-.38v-5.43Z"/>
  <path id="ruban-etoile" class="cls-1" d="M66.05,100l1.5.03,1.06.05,1.07.09.97.12.9.15.91.18.87.22.79.23.8.28.72.29.75.36.69.38.67.42.61.44.6.49.56.53.53.56.51.62.45.63.42.67.37.69.36.78.31.78.28.83.21.74.2.81.18.89.14.84.13,1.03.09,1.1.05,1.03.02,1.22v.25s.08.37.08.37l.12.36.17.34.14.21.16.2.28.26.31.22.34.17.36.12.37.06h.38s.25-.01.25-.01l.37-.08.36-.14.33-.19.3-.23.26-.27.22-.31.17-.34.12-.36.07-.37v-.25s.03-1.22.03-1.22l.05-1.03.09-1.1.13-1.03.13-.81.18-.89.2-.81.21-.74.28-.83.31-.78.35-.75.37-.7.43-.69.45-.63.49-.6.52-.57.56-.53.62-.51.63-.45.69-.43.69-.38.78-.37.78-.31.83-.29.77-.22.81-.2.86-.17.84-.14,1.03-.13,1.13-.1,1.03-.05,1.22-.02h.25s.37-.08.37-.08l.36-.12.34-.17.31-.22.27-.26.16-.2.14-.21.17-.34.12-.36.06-.37v-.38s-.04-.38-.04-.38l-.06-.25-.14-.36-.19-.33-.23-.3-.27-.26-.31-.22-.34-.17-.36-.12-.37-.07h-.25s-1.22-.03-1.22-.03l-1.03-.05-1.1-.09-1.03-.13-.84-.14-.89-.18-.81-.2-.74-.21-.83-.28-.78-.31-.75-.35-.69-.37-.67-.42-.63-.45-.6-.49-.57-.52-.53-.56-.51-.62-.45-.63-.43-.69-.38-.69-.37-.78-.31-.78-.29-.83-.22-.77-.2-.81-.17-.86-.14-.84-.13-1.03-.1-1.13-.05-1.03-.02-1.22v-.25s-.08-.37-.08-.37l-.12-.36-.17-.34-.22-.31-.26-.27-.3-.23-.33-.19-.36-.14-.37-.08-.25-.02h-.25l-.38.05-.37.1-.35.15-.32.2-.29.25-.25.29-.21.32-.16.35-.1.37-.05.38-.02,1.22-.04.91-.07.99-.08.8-.12.85-.14.78-.15.74-.18.73-.22.77-.25.72-.27.71-.29.66-.32.64-.35.61-.38.59-.41.56-.55.66-.57.59-.64.57-.68.52-.75.49-.75.43-.85.41-.85.35-.77.27-.79.23-.84.21-.89.18-1.17.18-.65.08-.66.06-1.2.08-.7.02h-.88s-.38.04-.38.04l-.37.09-.24.09-.23.11-.32.21-.2.16-.18.18-.23.3-.19.33-.14.36-.08.37-.03.38.03.38.05.25.07.24.1.23.12.22.22.31.26.28.3.24.22.13.23.11.36.12.37.07ZM78.83,97.41l.61-.33.59-.34.58-.37.57-.39.52-.39.53-.44.51-.46.47-.45.46-.48.46-.51.44-.53.39-.52.39-.57.37-.58.34-.59.33-.61.33.61.34.59.37.58.39.57.39.52.44.53.46.51.45.47.48.46.51.46.53.44.52.39.57.39.58.37.59.34.61.33-.61.33-.59.34-.58.37-.57.39-.52.39-.53.44-.51.46-.47.45-.46.48-.46.51-.44.53-.39.52-.39.57-.37.58-.34.59-.33.61-.33-.61-.35-.59-.37-.58-.39-.57-.39-.52-.44-.53-.46-.51-.45-.47-.48-.46-.51-.46-.53-.44-.52-.39-.57-.39-.58-.37-.59-.34-.61-.33Z"/>
  <path id="cls-2" class="cls-9" d="M74.13,77.35v5.22l-.03.38-.05.24-.08.26-.1.24-.13.23-.14.2-.17.2-.19.18-.21.16-.29.18-.31.14-.33.1-.32.05h-.26s-5.28.01-5.28.01l-.66.02-.7.06-.74.11-.69.14-.71.19-.83.29-.84.36-.77.4-.78.48-.73.53-.7.59-.65.64-.57.64-.48.61-.42.61-.4.67-.34.66-.3.69-.26.7-.21.72-.17.74-.12.75-.08.76-.03.76.02.77.06.72.11.76.15.74.2.73.2.59.23.58.25.56.28.55.31.53.33.51.35.49.41.51.4.45.43.44.48.44.47.39.5.37.5.34.52.31.54.29.84.38.86.32.85.25.91.19.89.12.85.05h5.54s.28.02.28.02l.22.03.24.06.21.07.22.1.19.11.2.14.17.14.17.17.25.32.2.36.14.39.08.39.02.31v5.3l.03.71.07.75.12.75.16.74.21.72.3.83.37.83.41.77.49.77.54.72.6.69.64.64.69.59.59.44.61.4.64.37.66.33.68.29.7.25.72.21.73.16.75.12.72.07.71.03.77-.02.75-.06.71-.1.74-.15.73-.2.59-.2.58-.23.56-.25.55-.28.53-.31.51-.33.49-.35.51-.41.45-.4.44-.43.44-.48.39-.47.37-.5.34-.5.31-.52.29-.54.38-.84.32-.86.25-.85.19-.91.12-.89.05-.85v-5.54s.02-.28.02-.28l.03-.22.06-.24.07-.21.1-.22.11-.19.14-.2.14-.17.17-.17.32-.25.36-.2.39-.14.39-.08.31-.02h5.3l.71-.03.75-.07.75-.12.74-.16.72-.21.83-.3.83-.37.77-.41.77-.49.72-.54.69-.6.64-.64.59-.69.44-.59.4-.61.37-.64.33-.66.29-.68.25-.7.21-.72.16-.73.12-.75.07-.72.03-.71-.02-.77-.06-.75-.1-.71-.15-.74-.2-.73-.2-.59-.23-.58-.25-.56-.28-.55-.31-.53-.33-.51-.35-.49-.41-.51-.4-.45-.43-.44-.48-.44-.47-.39-.5-.37-.5-.34-.52-.31-.54-.29-.84-.38-.86-.32-.43-.13-.47-.13-.88-.18-.87-.11-.85-.05h-5.54s-.26-.02-.26-.02l-.22-.03-.21-.05-.21-.07-.22-.1-.19-.1-.18-.12-.17-.13-.18-.16-.28-.33-.12-.18-.1-.19-.08-.2-.07-.21-.05-.21-.03-.22v-.26s-.02-5.48-.02-5.48l-.04-.79-.1-.82-.16-.86-.23-.85-.28-.82-.34-.81-.27-.54-.28-.49-.32-.51-.35-.5-.34-.44-.39-.46-.41-.44-.44-.42-.46-.4-.47-.37-.49-.35-.47-.31-.53-.31-.53-.28-.51-.24-.56-.23-.71-.24-.73-.2-.69-.14-.74-.11-.72-.06-.77-.02-.76.03-.72.07-.74.12-.69.15-.71.2-.7.25-.68.29-.66.32-.64.36-.61.4-.59.43-.57.48-.56.53-.5.53-.47.57-.43.59-.4.61-.36.64-.32.66-.28.68-.24.71-.2.71-.16.74-.11.71-.07.75-.02.72ZM79.33,77.35v-.46s.06-.48.06-.48l.07-.43.11-.46.12-.41.16-.43.19-.42.21-.4.24-.39.26-.37.29-.35.31-.34.36-.34.35-.29.37-.27.38-.24.4-.22.42-.19.43-.17.41-.13.45-.11.43-.08.48-.05.45-.02h.46s.48.05.48.05l.43.06.46.1.41.12.44.15.42.18.41.21.54.33.53.4.47.42.45.49.41.53.34.53.3.6.23.59.15.48.11.46.08.47.04.48v.42s.01,5.38.01,5.38l.04.63.1.67.13.56.16.52.2.52.23.48.27.48.29.44.33.44.38.43.42.42.44.37.46.34.49.3.51.27.54.23.56.19.55.14.37.07.37.05.38.04.38.02h5.45s.56.03.56.03l.62.08.6.13.58.18.56.23.38.19.37.21.35.23.34.25.32.27.33.31.29.31.27.32.25.34.23.36.21.37.18.38.16.39.14.4.11.42.08.39.07.51.03.52v.53s-.05.56-.05.56l-.08.5-.12.53-.16.51-.2.49-.23.47-.27.45-.3.43-.36.43-.39.4-.39.35-.42.32-.44.29-.34.19-.31.16-.36.16-.33.12-.38.12-.35.09-.39.08-.36.05-.41.04h-.38s-5.53.02-5.53.02l-.38.02-.43.05-.37.06-.39.08-.55.15-.55.2-.53.24-.51.28-.48.31-.46.35-.43.38-.42.42-.36.42-.31.42-.3.47-.24.45-.22.48-.18.48-.15.49-.12.51-.1.67-.05.68v5.43s-.02.52-.02.52l-.07.58-.13.6-.18.58-.22.56-.18.38-.21.37-.23.35-.27.37-.27.32-.31.33-.31.29-.32.27-.34.25-.35.23-.37.21-.38.18-.39.16-.4.14-.41.11-.42.09-.51.07-.52.03h-.53s-.56-.05-.56-.05l-.5-.08-.53-.12-.51-.16-.49-.2-.47-.23-.45-.27-.43-.3-.43-.36-.4-.39-.35-.39-.32-.42-.29-.44-.19-.34-.16-.31-.16-.36-.12-.33-.12-.38-.09-.35-.08-.39-.05-.36-.04-.41v-.38s-.02-5.53-.02-5.53l-.02-.38-.05-.43-.06-.37-.08-.39-.15-.55-.2-.55-.24-.53-.28-.51-.31-.48-.35-.46-.38-.43-.42-.42-.42-.36-.42-.31-.47-.3-.45-.24-.48-.22-.48-.18-.49-.15-.51-.12-.67-.1-.68-.05h-5.43s-.52-.02-.52-.02l-.58-.07-.6-.13-.58-.18-.56-.22-.38-.18-.37-.21-.35-.23-.37-.27-.32-.27-.33-.31-.29-.31-.27-.32-.25-.34-.23-.35-.21-.37-.18-.38-.16-.39-.14-.4-.11-.41-.09-.42-.07-.51-.03-.52v-.53s.05-.56.05-.56l.08-.5.12-.53.16-.51.2-.49.23-.47.27-.45.3-.43.36-.43.39-.4.39-.35.42-.32.44-.29.34-.19.31-.16.36-.16.33-.12.38-.12.35-.09.39-.08.36-.05.41-.04h.38s5.5-.02,5.5-.02l.38-.02.4-.04.37-.06.41-.09.52-.14.55-.2.51-.23.51-.27.49-.31.46-.34.43-.37.41-.4.34-.4.33-.44.29-.44.27-.48.23-.48.2-.52.16-.52.12-.51.1-.67.05-.68v-5.39Z"/>
  <path id="cls-1" class="cls-6" d="M66.05,100l1.5.03,1.06.05,1.07.09.97.12.9.15.91.18.87.22.79.23.8.28.72.29.75.36.69.38.67.42.61.44.6.49.56.53.53.56.51.62.45.63.42.67.37.69.36.78.31.78.28.83.21.74.2.81.18.89.14.84.13,1.03.09,1.1.05,1.03.02,1.22v.25s.08.37.08.37l.12.36.17.34.14.21.16.2.28.26.31.22.34.17.36.12.37.06h.38s.25-.01.25-.01l.37-.08.36-.14.33-.19.3-.23.26-.27.22-.31.17-.34.12-.36.07-.37v-.25s.03-1.22.03-1.22l.05-1.03.09-1.1.13-1.03.13-.81.18-.89.2-.81.21-.74.28-.83.31-.78.35-.75.37-.7.43-.69.45-.63.49-.6.52-.57.56-.53.62-.51.63-.45.69-.43.69-.38.78-.37.78-.31.83-.29.77-.22.81-.2.86-.17.84-.14,1.03-.13,1.13-.1,1.03-.05,1.22-.02h.25s.37-.08.37-.08l.36-.12.34-.17.31-.22.27-.26.16-.2.14-.21.17-.34.12-.36.06-.37v-.38s-.04-.38-.04-.38l-.06-.25-.14-.36-.19-.33-.23-.3-.27-.26-.31-.22-.34-.17-.36-.12-.37-.07h-.25s-1.22-.03-1.22-.03l-1.03-.05-1.1-.09-1.03-.13-.84-.14-.89-.18-.81-.2-.74-.21-.83-.28-.78-.31-.75-.35-.69-.37-.67-.42-.63-.45-.6-.49-.57-.52-.53-.56-.51-.62-.45-.63-.43-.69-.38-.69-.37-.78-.31-.78-.29-.83-.22-.77-.2-.81-.17-.86-.14-.84-.13-1.03-.1-1.13-.05-1.03-.02-1.22v-.25s-.08-.37-.08-.37l-.12-.36-.17-.34-.22-.31-.26-.27-.3-.23-.33-.19-.36-.14-.37-.08-.25-.02h-.25l-.38.05-.37.1-.35.15-.32.2-.29.25-.25.29-.21.32-.16.35-.1.37-.05.38-.02,1.22-.04.91-.07.99-.08.8-.12.85-.14.78-.15.74-.18.73-.22.77-.25.72-.27.71-.29.66-.32.64-.35.61-.38.59-.41.56-.55.66-.57.59-.64.57-.68.52-.75.49-.75.43-.85.41-.85.35-.77.27-.79.23-.84.21-.89.18-1.17.18-.65.08-.66.06-1.2.08-.7.02h-.88s-.38.04-.38.04l-.37.09-.24.09-.23.11-.32.21-.2.16-.18.18-.23.3-.19.33-.14.36-.08.37-.03.38.03.38.05.25.07.24.1.23.12.22.22.31.26.28.3.24.22.13.23.11.36.12.37.07ZM78.83,97.41l.61-.33.59-.34.58-.37.57-.39.52-.39.53-.44.51-.46.47-.45.46-.48.46-.51.44-.53.39-.52.39-.57.37-.58.34-.59.33-.61.33.61.34.59.37.58.39.57.39.52.44.53.46.51.45.47.48.46.51.46.53.44.52.39.57.39.58.37.59.34.61.33-.61.33-.59.34-.58.37-.57.39-.52.39-.53.44-.51.46-.47.45-.46.48-.46.51-.44.53-.39.52-.39.57-.37.58-.34.59-.33.61-.33-.61-.35-.59-.37-.58-.39-.57-.39-.52-.44-.53-.46-.51-.45-.47-.48-.46-.51-.46-.53-.44-.52-.39-.57-.39-.58-.37-.59-.34-.61-.33Z"/>
  <g class="cls-12">
    <path class="cls-13" d="M149.1,111.68v-27.7h5.9l8.07,11.95,8.07-11.95h5.86v27.7h-5.38v-19.23l-8.55,12.59-8.55-12.55v19.19h-5.42Z"/>
    <path class="cls-13" d="M191.21,112.15c-1.95,0-3.68-.44-5.18-1.33s-2.69-2.1-3.54-3.66c-.86-1.56-1.29-3.35-1.29-5.38s.44-3.83,1.33-5.38c.88-1.56,2.1-2.78,3.64-3.66,1.54-.88,3.32-1.33,5.32-1.33,1.74,0,3.34.46,4.81,1.37s2.64,2.24,3.52,4c.88,1.76,1.33,3.89,1.33,6.39h-14.49c.13,1.32.7,2.37,1.7,3.15,1,.78,2.14,1.17,3.4,1.17,1.08,0,1.97-.23,2.65-.69.69-.46,1.21-1.06,1.58-1.8l4.67,1.82c-.55,1.11-1.27,2.06-2.16,2.87-.88.81-1.93,1.42-3.15,1.84-1.21.42-2.6.63-4.16.63ZM186.94,99.29h8.55c-.08-.82-.34-1.48-.79-1.98-.45-.5-.98-.87-1.58-1.11-.61-.24-1.2-.36-1.78-.36s-1.15.11-1.8.34c-.65.22-1.21.59-1.7,1.09-.49.5-.79,1.17-.89,2.02Z"/>
    <path class="cls-13" d="M212.07,112.15c-1.82,0-3.4-.42-4.73-1.27-1.33-.84-2.37-2.04-3.11-3.6-.74-1.56-1.11-3.39-1.11-5.5s.37-3.98,1.11-5.52c.74-1.54,1.77-2.74,3.11-3.58,1.33-.84,2.91-1.27,4.73-1.27,1.29,0,2.45.27,3.46.81,1.02.54,1.84,1.31,2.47,2.32v-10.57h5.22v27.7h-4.95l-.16-2.77c-.66,1.03-1.5,1.83-2.53,2.39-1.03.57-2.2.85-3.52.85ZM213.41,107.37c.87,0,1.64-.22,2.32-.65.67-.44,1.21-1.05,1.6-1.84.4-.79.62-1.69.67-2.69v-.79c-.05-1-.28-1.89-.67-2.67-.4-.78-.94-1.38-1.62-1.82-.69-.44-1.46-.65-2.34-.65-.95,0-1.79.23-2.51.69-.73.46-1.29,1.12-1.7,1.96-.41.84-.61,1.81-.61,2.89s.21,2.05.63,2.89c.42.84,1,1.5,1.72,1.98.73.47,1.56.71,2.51.71Z"/>
    <path class="cls-13" d="M230.67,88.69c-.79,0-1.49-.3-2.1-.89-.61-.59-.91-1.3-.91-2.12s.3-1.52.91-2.12c.61-.59,1.31-.89,2.1-.89s1.52.3,2.12.89c.59.59.89,1.3.89,2.12s-.3,1.52-.89,2.12-1.3.89-2.12.89ZM228.06,111.68v-19.79h5.22v19.79h-5.22Z"/>
    <path class="cls-13" d="M251.09,112.15c-2.69,0-5.08-.61-7.16-1.84-2.08-1.23-3.72-2.92-4.91-5.07-1.19-2.15-1.78-4.62-1.78-7.42s.59-5.27,1.78-7.42c1.19-2.15,2.82-3.84,4.89-5.07,2.07-1.23,4.45-1.84,7.14-1.84,1.9,0,3.67.34,5.3,1.01s3.07,1.61,4.29,2.81c1.23,1.2,2.17,2.58,2.83,4.14l-5.03,1.86c-.45-.98-1.04-1.83-1.78-2.55-.74-.73-1.58-1.29-2.53-1.7-.95-.41-1.98-.61-3.09-.61-1.61,0-3.04.4-4.29,1.21-1.25.8-2.23,1.91-2.93,3.3s-1.05,3.02-1.05,4.87.36,3.48,1.07,4.89,1.7,2.52,2.97,3.32c1.27.81,2.72,1.21,4.35,1.21,1.13,0,2.17-.22,3.11-.65.94-.44,1.77-1.04,2.49-1.8s1.31-1.65,1.76-2.65l5.03,1.82c-.66,1.61-1.6,3.03-2.83,4.27-1.23,1.24-2.66,2.2-4.29,2.89-1.64.69-3.42,1.03-5.34,1.03Z"/>
    <path class="cls-13" d="M273.21,112.15c-2.37,0-4.22-.53-5.52-1.58-1.31-1.05-1.96-2.55-1.96-4.47,0-2.11.71-3.7,2.12-4.77,1.41-1.07,3.4-1.6,5.96-1.6h4.67c-.19-1.21-.57-2.14-1.15-2.79-.58-.65-1.41-.97-2.49-.97-.84,0-1.61.18-2.3.55-.69.37-1.27.94-1.74,1.7l-4.59-1.58c.37-.84.91-1.67,1.62-2.47.71-.8,1.64-1.46,2.79-1.98,1.15-.51,2.55-.77,4.22-.77,2,0,3.67.38,5.01,1.15,1.33.77,2.32,1.84,2.97,3.23.65,1.38.96,3.03.93,4.93l-.12,10.96h-4.87l-.08-2.3c-.5.9-1.21,1.58-2.12,2.06-.91.47-2.02.71-3.34.71ZM274.08,107.8c.84,0,1.61-.2,2.3-.59.69-.4,1.23-.91,1.62-1.54.4-.63.59-1.29.59-1.98v-.08h-2.97c-1.72,0-2.9.2-3.56.61-.66.41-.99.98-.99,1.72,0,.58.26,1.04.79,1.37.53.33,1.27.49,2.22.49Z"/>
    <path class="cls-13" d="M287.89,111.68v-19.79h5.22v3.64c.82-1.24,1.85-2.17,3.11-2.79,1.25-.62,2.55-.93,3.9-.93v5.07c-1.21,0-2.35.15-3.42.44-1.07.29-1.93.77-2.59,1.42-.66.66-.99,1.5-.99,2.53v10.41h-5.22Z"/>
    <path class="cls-13" d="M311.84,112.15c-1.95,0-3.68-.44-5.18-1.33s-2.69-2.1-3.54-3.66c-.86-1.56-1.29-3.35-1.29-5.38s.44-3.83,1.33-5.38c.88-1.56,2.1-2.78,3.64-3.66,1.54-.88,3.32-1.33,5.32-1.33,1.74,0,3.34.46,4.81,1.37s2.64,2.24,3.52,4c.88,1.76,1.33,3.89,1.33,6.39h-14.49c.13,1.32.7,2.37,1.7,3.15,1,.78,2.14,1.17,3.4,1.17,1.08,0,1.97-.23,2.65-.69.69-.46,1.21-1.06,1.58-1.8l4.67,1.82c-.55,1.11-1.27,2.06-2.16,2.87-.88.81-1.93,1.42-3.15,1.84-1.21.42-2.6.63-4.16.63ZM307.56,99.29h8.55c-.08-.82-.34-1.48-.79-1.98-.45-.5-.98-.87-1.58-1.11-.61-.24-1.2-.36-1.78-.36s-1.15.11-1.8.34c-.65.22-1.21.59-1.7,1.09-.49.5-.79,1.17-.89,2.02Z"/>
    <path class="cls-13" d="M334.99,111.68v-27.7h10.29c1.95,0,3.68.39,5.19,1.17,1.5.78,2.68,1.86,3.52,3.25.84,1.39,1.27,2.99,1.27,4.81s-.41,3.39-1.23,4.79c-.82,1.4-1.94,2.5-3.36,3.3-1.42.81-3.07,1.21-4.95,1.21h-5.3v9.18h-5.42ZM340.41,97.51h5.19c1.21,0,2.21-.4,2.99-1.21.78-.8,1.17-1.84,1.17-3.11s-.43-2.3-1.29-3.09c-.86-.79-1.96-1.19-3.3-1.19h-4.75v8.59Z"/>
    <path class="cls-13" d="M358.02,111.68v-19.79h5.22v3.64c.82-1.24,1.85-2.17,3.11-2.79,1.25-.62,2.55-.93,3.9-.93v5.07c-1.21,0-2.35.15-3.42.44-1.07.29-1.93.77-2.59,1.42-.66.66-.99,1.5-.99,2.53v10.41h-5.22Z"/>
    <path class="cls-13" d="M382.33,112.15c-2.03,0-3.83-.44-5.38-1.33-1.56-.88-2.78-2.1-3.66-3.66-.88-1.56-1.33-3.35-1.33-5.38s.44-3.83,1.31-5.38c.87-1.56,2.08-2.78,3.64-3.66,1.56-.88,3.34-1.33,5.34-1.33s3.83.44,5.38,1.33c1.56.88,2.77,2.1,3.64,3.66.87,1.56,1.31,3.35,1.31,5.38s-.44,3.83-1.31,5.38c-.87,1.56-2.08,2.78-3.62,3.66-1.54.88-3.32,1.33-5.32,1.33ZM382.33,107.33c.98,0,1.83-.24,2.55-.71.73-.48,1.3-1.13,1.72-1.96.42-.83.63-1.79.63-2.87s-.21-2.04-.63-2.87c-.42-.83-1.01-1.48-1.76-1.96-.75-.47-1.6-.71-2.55-.71s-1.84.24-2.59.71c-.75.48-1.34,1.13-1.76,1.96-.42.83-.63,1.79-.63,2.87s.21,2.04.63,2.87c.42.83,1.02,1.48,1.78,1.96.77.47,1.64.71,2.61.71Z"/>
  </g>
</svg>